<svg width="22" height="22" viewBox="0 0 22 22" fill="none" xmlns="http://www.w3.org/2000/svg">
    <path d="M18.5104 1.28435L11.7916 0.0994149C10.4693 -0.132874 9.3794 0.042096 8.55044 0.622308C7.72149 1.20252 7.18419 2.16642 6.95187 3.48852L6.84144 4.11685L3.48564 4.70731C0.830916 5.17905 -0.371445 6.9002 0.100345 9.55364L1.68043 18.5106C1.90967 19.8327 2.44385 20.7966 3.27076 21.3768C3.86229 21.7912 4.58685 22 5.43526 22C5.77503 22 6.13619 21.9662 6.51587 21.8987L13.2407 20.7147C15.1514 20.3689 16.0121 19.4459 16.3949 18.5566C16.444 18.5576 16.5005 18.5709 16.5486 18.5709C18.5954 18.5709 19.9197 17.3614 20.3229 15.0825L21.9019 6.12459C22.3676 3.47118 21.1652 1.752 18.5104 1.28435ZM12.9706 19.2042L6.24878 20.3872C5.33897 20.5468 4.63502 20.4589 4.153 20.1202C3.672 19.7825 3.34964 19.1532 3.19305 18.2455L1.61172 9.28448C1.28832 7.45892 1.92901 6.5421 3.75272 6.21772L6.55685 5.72443L5.37178 12.4465C4.90409 15.1009 6.10763 16.8201 8.76133 17.2877L14.7484 18.3427C14.4639 18.6794 13.949 19.0262 12.9706 19.2042ZM20.3893 5.85852L18.8102 14.8165C18.4878 16.642 17.5728 17.2836 15.746 16.9613L9.02742 15.7763C7.20269 15.455 6.56106 14.5391 6.88241 12.7136L8.46249 3.75565C8.62215 2.84901 8.94866 2.21763 9.43069 1.87994C9.7592 1.65072 10.1891 1.53506 10.7172 1.53506C10.9649 1.53506 11.2348 1.56065 11.5255 1.61182L18.2444 2.79681C20.0691 3.11711 20.7107 4.03296 20.3893 5.85852ZM17.7509 10.0121C17.6864 10.3846 17.3622 10.6465 16.9968 10.6465C16.9528 10.6465 16.9077 10.6434 16.8627 10.6353L10.144 9.45028C9.72647 9.37663 9.44693 8.97854 9.52164 8.56104C9.5943 8.14353 9.99666 7.86516 10.4101 7.93884L17.1287 9.12384C17.5453 9.19649 17.8246 9.59354 17.7509 10.0121ZM18.4675 6.67409C18.403 7.04657 18.0785 7.30852 17.7131 7.30852C17.6691 7.30852 17.624 7.30547 17.5789 7.29729L10.8604 6.11229C10.4428 6.03861 10.1635 5.64053 10.2382 5.22302C10.3109 4.80654 10.713 4.52619 11.1265 4.60089L17.845 5.78589C18.2626 5.85956 18.5411 6.25658 18.4675 6.67409ZM14.6366 12.9397C14.5722 13.3122 14.2478 13.5742 13.8824 13.5742C13.8384 13.5742 13.7935 13.5711 13.7484 13.5629L9.54837 12.822C9.13082 12.7484 8.85152 12.3503 8.92623 11.9328C8.99889 11.5163 9.39896 11.2359 9.81446 11.3106L14.0145 12.0515C14.4321 12.1242 14.7103 12.5222 14.6366 12.9397Z" fill="#5E7389"/>
</svg>
