<svg width="22" height="22" viewBox="0 0 22 22" fill="none" xmlns="http://www.w3.org/2000/svg">
    <path d="M8.64286 0C7.34765 0 6.28571 1.14363 6.28571 2.53846V3.38462H2.35714C1.06194 3.38462 0 4.52824 0 5.92308V19.4615C0 20.8564 1.06194 22 2.35714 22H19.6429C20.9381 22 22 20.8564 22 19.4615V5.92308C22 4.52824 20.9381 3.38462 19.6429 3.38462H15.7143V2.53846C15.7143 1.14363 14.6523 0 13.3571 0H8.64286ZM8.64286 1.69231H13.3571C13.7991 1.69231 14.1429 2.0625 14.1429 2.53846V3.38462H7.85714V2.53846C7.85714 2.0625 8.20089 1.69231 8.64286 1.69231ZM2.35714 5.07692H19.6429C20.0848 5.07692 20.4286 5.44712 20.4286 5.92308V13.5385H1.57143V5.92308C1.57143 5.44712 1.91518 5.07692 2.35714 5.07692ZM9.42857 10.1538V11.8462H12.5714V10.1538H9.42857ZM1.57143 15.2308H20.4286V19.4615C20.4286 19.9375 20.0848 20.3077 19.6429 20.3077H2.35714C1.91518 20.3077 1.57143 19.9375 1.57143 19.4615V15.2308Z" fill="#5E7389"/>
</svg>
