<svg width="167" height="167" viewBox="0 0 167 167" fill="none" xmlns="http://www.w3.org/2000/svg">
    <circle cx="83.5" cy="83.5" r="83.5" fill="#F1F6FB"/>
    <path d="M122.046 44.9539C110.107 33.0153 90.6817 33.0155 78.7431 44.9539C70.5891 53.1079 67.7576 65.1275 71.2869 76.0298L36.8155 110.501C36.2933 111.023 36 111.731 36 112.47V128.216C36 129.754 37.2463 131 38.7836 131H54.5302C55.2687 131 55.9763 130.707 56.4986 130.184L60.4359 126.247C61.0373 125.646 61.3308 124.802 61.2325 123.957L60.7412 119.73L66.6015 119.178C67.9322 119.052 68.9861 117.998 69.1115 116.668L69.6643 110.807L73.892 111.298C74.6813 111.39 75.4713 111.14 76.0647 110.612C76.6577 110.084 76.9971 109.327 76.9971 108.533V103.349H82.0866C82.8194 103.349 83.5224 103.06 84.0436 102.545L90.9593 95.7093C101.864 99.2441 113.89 96.4132 122.046 88.2566C133.984 76.3182 133.984 56.8923 122.046 44.9539ZM118.109 84.3202C111.084 91.346 100.544 93.5389 91.2603 89.9078C90.2357 89.5072 89.0715 89.7473 88.2895 90.5205L80.9431 97.782H74.2133C72.6761 97.782 71.4298 99.0283 71.4298 100.566V105.407L67.4813 104.948C66.7375 104.862 65.9905 105.079 65.4084 105.55C64.8265 106.021 64.4588 106.706 64.3885 107.452L63.7849 113.851L57.3861 114.454C56.6406 114.524 55.955 114.892 55.4837 115.474C55.0126 116.056 54.7957 116.803 54.8822 117.547L55.5468 123.263L53.377 125.433H41.567V113.623L76.4677 78.7223C77.2496 77.9404 77.4947 76.7698 77.0919 75.74C73.4604 66.4556 75.6537 55.9169 82.6795 48.8908C92.4478 39.1229 108.341 39.1229 118.109 48.8908C127.877 58.6586 127.877 74.5523 118.109 84.3202Z" fill="black"/>
    <path d="M114.172 52.8273C110.917 49.5711 105.618 49.5713 102.363 52.8273C99.1067 56.0833 99.1067 61.3812 102.363 64.6372C105.618 67.8931 110.917 67.8935 114.172 64.6372C117.428 61.3812 117.428 56.0833 114.172 52.8273ZM110.236 60.7006C109.151 61.7859 107.385 61.7861 106.299 60.7006C105.214 59.6153 105.214 57.8495 106.299 56.764C107.388 55.676 109.148 55.676 110.236 56.764C111.324 57.8521 111.324 59.6126 110.236 60.7006Z" fill="black"/>
</svg>
