<svg width="24" height="25" viewBox="0 0 24 25" fill="none" xmlns="http://www.w3.org/2000/svg">
    <path d="M11.0729 17.682C11.4729 18.06 11.9869 18.249 12.5009 18.249C13.0149 18.249 13.5279 18.06 13.9289 17.682L20.2028 11.754C20.7238 11.262 20.8909 10.513 20.6259 9.84601C20.3599 9.17901 19.727 8.74902 19.009 8.74902H17.166V4.5C17.166 3.535 16.381 2.75 15.416 2.75H9.41595C8.45095 2.75 7.66595 3.535 7.66595 4.5V8.75H5.99286C5.27486 8.75 4.64091 9.18098 4.37591 9.84698C4.11092 10.514 4.27701 11.262 4.79901 11.754L11.0729 17.682ZM5.77093 10.401C5.79793 10.332 5.85883 10.25 5.99383 10.25H8.41693C8.61593 10.25 8.80696 10.171 8.94696 10.03C9.08696 9.88903 9.16693 9.699 9.16693 9.5V4.5C9.16693 4.362 9.27893 4.25 9.41693 4.25H15.4169C15.5549 4.25 15.6669 4.362 15.6669 4.5V9.5C15.6669 9.699 15.7459 9.89003 15.8869 10.03C16.0279 10.171 16.2179 10.25 16.4169 10.25H19.0099C19.1449 10.25 19.2048 10.332 19.2328 10.401C19.2598 10.47 19.273 10.571 19.175 10.664L12.9008 16.592C12.6758 16.803 12.3289 16.803 12.1039 16.592L5.83002 10.664C5.73002 10.571 5.74293 10.47 5.77093 10.401ZM20.2509 21.5C20.2509 21.914 19.9149 22.25 19.5009 22.25H5.50092C5.08692 22.25 4.75091 21.914 4.75091 21.5C4.75091 21.086 5.08692 20.75 5.50092 20.75H19.5009C19.9149 20.75 20.2509 21.086 20.2509 21.5Z" fill="#25314C"/>
</svg>
