<svg width="20" height="20" viewBox="0 0 20 20" fill="none" xmlns="http://www.w3.org/2000/svg">
    <path
        d="M17.8677 17.4028H2.10979C1.00708 17.4028 0.109863 16.5056 0.109863 15.4029V4.57473C0.109863 3.47202 1.00708 2.5748 2.10979 2.5748H17.8677C18.9704 2.5748 19.8677 3.47202 19.8677 4.57473V15.4029C19.8677 16.5058 18.9704 17.4028 17.8677 17.4028ZM2.10979 3.89199C1.7333 3.89199 1.42705 4.19846 1.42705 4.57473V15.4029C1.42705 15.7794 1.7333 16.0857 2.10979 16.0857H17.8677C18.2442 16.0857 18.5505 15.7792 18.5505 15.4029V4.57473C18.5505 4.19823 18.244 3.89199 17.8677 3.89199H2.10979Z"
        fill="#162C4E" />
    <path
        d="M9.98883 12.2778C8.80158 12.2778 7.66203 11.7747 6.86228 10.8974L0.657227 4.08888L1.63085 3.20154L7.8359 10.0098C8.39458 10.6228 9.15925 10.9607 9.98883 10.9607C10.8184 10.9607 11.5831 10.623 12.142 10.0098L18.3472 3.20154L19.3207 4.08888L13.1152 10.8972C12.3157 11.7747 11.1761 12.2778 9.98883 12.2778Z"
        fill="#162C4E" />
    <path d="M6.72836 9.819L0.692871 15.8853L1.62662 16.8143L7.66211 10.748L6.72836 9.819Z"
        fill="#162C4E" />
    <path d="M13.2498 9.81885L12.3159 10.7479L18.3514 16.815L19.2853 15.886L13.2498 9.81885Z"
        fill="#162C4E" />
</svg>
