<svg width="167" height="167" viewBox="0 0 167 167" fill="none" xmlns="http://www.w3.org/2000/svg">
    <path d="M83.5 167C129.616 167 167 129.616 167 83.5C167 37.3842 129.616 0 83.5 0C37.3842 0 0 37.3842 0 83.5C0 129.616 37.3842 167 83.5 167Z" fill="#F1F6FB"/>
    <path d="M122.536 66.0721L108.999 79.6088C108.023 80.5852 106.743 81.0733 105.463 81.0733C104.184 81.0733 102.904 80.5852 101.928 79.6088C99.9752 77.6562 99.9752 74.4904 101.928 72.5377L106.929 67.5366H54.5078C51.7464 67.5366 49.5078 65.2981 49.5078 62.5367C49.5078 59.7753 51.7464 57.5367 54.5078 57.5367H106.929L101.928 52.5356C99.9752 50.5829 99.9752 47.4171 101.928 45.4645C103.88 43.5118 107.046 43.5118 108.999 45.4645L122.536 59.0012C124.488 60.9537 124.488 64.1196 122.536 66.0721ZM110.758 100.463H61.0711L66.0723 95.4621C68.0248 93.5094 68.0248 90.3436 66.0723 88.391C64.1195 86.4383 60.9539 86.4383 59.0011 88.391L45.4644 101.928C43.5119 103.88 43.5119 107.046 45.4644 108.999L59.0011 122.535C59.9775 123.512 61.257 124 62.5367 124C63.8164 124 65.0959 123.512 66.0723 122.535C68.0248 120.583 68.0248 117.417 66.0723 115.464L61.0711 110.463H110.758C113.519 110.463 115.758 108.225 115.758 105.463C115.758 102.702 113.519 100.463 110.758 100.463Z" fill="#162C4E"/>
</svg>
