<svg width="53" height="53" viewBox="0 0 53 53" fill="none" xmlns="http://www.w3.org/2000/svg">
    <rect x="0.592773" y="0.974091" width="51.9757" height="51.9757" rx="4.32581" fill="#E7F0F4"/>
    <path d="M40.3588 23.6562L23.2483 13.4232C20.9548 12.0477 18.1543 12.4107 16.2808 14.3142C14.4178 16.2087 14.1071 18.9988 15.5081 21.2548L19.2087 27.2127L15.5081 33.1707C14.1056 35.4267 14.4163 38.2167 16.2808 40.1112C17.3953 41.2437 18.8366 41.8302 20.3066 41.8302C21.3056 41.8302 22.3198 41.5587 23.2483 41.0022L40.3588 30.7692C41.6248 30.0132 42.3792 28.6827 42.3792 27.2127C42.3792 25.7427 41.6248 24.4122 40.3588 23.6562ZM39.2053 28.8388L22.0948 39.0717C20.3863 40.0917 18.7585 39.4212 17.8855 38.5332C17.0215 37.6542 16.3799 36.0327 17.4194 34.3572L21.1587 28.3362H29.2542C29.8752 28.3362 30.3792 27.8322 30.3792 27.2112C30.3792 26.5902 29.8752 26.0862 29.2542 26.0862H21.1587L17.4194 20.0652C16.3799 18.3897 17.02 16.7682 17.8855 15.8892C18.4465 15.3192 19.318 14.8377 20.323 14.8377C20.8825 14.8377 21.4828 14.9862 22.0948 15.3522L39.2053 25.5852C39.7843 25.9317 40.1292 26.5392 40.1292 27.2112C40.1292 27.8832 39.7843 28.4923 39.2053 28.8388Z" fill="#172C4E"/>
</svg>
