<svg width="23" height="22" viewBox="0 0 23 22" fill="none" xmlns="http://www.w3.org/2000/svg">
    <path d="M21.6011 9.19265L18.7744 8.73065C18.6089 8.16343 18.3826 7.61822 18.0995 7.10217L19.7496 4.75057C19.8831 4.5607 19.8601 4.30196 19.6961 4.13743L17.8359 2.27843C17.67 2.11296 17.4088 2.09143 17.2185 2.2287L14.902 3.89352C14.3812 3.60561 13.8311 3.377 13.2605 3.21104L12.7674 0.396C12.7272 0.167391 12.5287 0 12.2962 0H9.66558C9.43121 0 9.23128 0.169783 9.19349 0.401261L8.73623 3.201C8.16227 3.366 7.61127 3.59222 7.09231 3.8763L4.78211 2.2263C4.59127 2.09 4.33155 2.112 4.16558 2.277L2.30641 4.136C2.14236 4.30004 2.1194 4.5583 2.25284 4.74817L3.87859 7.07396C3.58922 7.59765 3.35868 8.15196 3.1908 8.72874L0.401814 9.19313C0.171272 9.23139 0.00195312 9.4313 0.00195312 9.6647V12.2951C0.00195312 12.5271 0.168402 12.7256 0.396553 12.7662L3.18553 13.2607C3.35246 13.8361 3.583 14.3904 3.87333 14.9155L2.22749 17.2174C2.09166 17.4073 2.11318 17.6679 2.27819 17.8339L4.13783 19.6948C4.30189 19.8588 4.56065 19.8818 4.75054 19.7483L7.07987 18.117C7.60266 18.4044 8.1551 18.6326 8.72762 18.798L9.19445 21.6011C9.23223 21.8312 9.43169 22 9.66558 22H12.2962C12.5282 22 12.7267 21.8336 12.7669 21.6054L13.2667 18.7885C13.8402 18.6197 14.3898 18.3901 14.9073 18.1022L17.2534 19.7479C17.4437 19.8823 17.702 19.8588 17.8666 19.6948L19.7262 17.8339C19.8917 17.6679 19.9132 17.4063 19.7759 17.216L18.1028 14.893C18.3865 14.3765 18.6117 13.8303 18.7758 13.2631L21.6064 12.7662C21.8355 12.726 22.002 12.5271 22.002 12.2951V9.6647C22.0024 9.43035 21.8326 9.23044 21.6011 9.19265ZM11.002 14.3478C9.15284 14.3478 7.65384 12.849 7.65384 11C7.65384 9.15104 9.15284 7.65217 11.002 7.65217C12.8511 7.65217 14.3501 9.15104 14.3501 11C14.3501 12.849 12.8511 14.3478 11.002 14.3478Z" fill="#5E7389"/>
</svg>
