<svg width="167" height="167" viewBox="0 0 167 167" fill="none" xmlns="http://www.w3.org/2000/svg">
    <path d="M83.5 167C129.616 167 167 129.616 167 83.5C167 37.3842 129.616 0 83.5 0C37.3842 0 0 37.3842 0 83.5C0 129.616 37.3842 167 83.5 167Z" fill="#F1F6FB"/>
    <path d="M123.934 63.5948C119.472 54.471 112.096 47.0947 102.972 42.6323C97.1283 39.659 90.6773 38.0746 84.1211 38.0026C77.565 37.9305 71.0807 39.3727 65.1731 42.2168C58.4236 45.6249 52.5111 50.4833 47.859 56.444C43.2069 62.4047 39.9304 69.3203 38.264 76.6956C37.8847 78.3742 37.9145 80.1195 38.3507 81.7842C38.787 83.449 39.617 84.9845 40.7708 86.2614C41.8975 87.521 43.3152 88.4859 44.9003 89.0719C46.4854 89.658 48.1898 89.8474 49.8649 89.6238L68.9755 87.2332C71.7063 87.2855 74.3106 88.3936 76.2419 90.3248C78.1732 92.2561 79.2813 94.8605 79.3336 97.5912L76.943 116.702C76.7224 118.376 76.9133 120.079 77.4992 121.663C78.085 123.247 79.0482 124.665 80.3053 125.792C81.5833 126.945 83.1188 127.774 84.7831 128.211C86.4474 128.647 88.1921 128.679 89.8712 128.303C97.247 126.638 104.163 123.361 110.124 118.709C116.085 114.057 120.943 108.144 124.35 101.394C127.194 95.4861 128.636 89.0018 128.564 82.4456C128.492 75.8895 126.908 69.4385 123.934 63.5948ZM118.006 98.3411C115.067 104.139 110.883 109.216 105.753 113.208C100.624 117.2 94.6748 120.009 88.3326 121.434C87.7559 121.569 87.1551 121.561 86.5818 121.413C86.0084 121.265 85.4796 120.979 85.0407 120.582C84.622 120.211 84.3016 119.742 84.1081 119.218C83.9146 118.693 83.854 118.129 83.9317 117.575L86.3469 98.232L86.3751 97.7954C86.3695 93.1283 84.513 88.654 81.2129 85.3539C77.9128 82.0537 73.4384 80.1973 68.7713 80.1917H68.553L48.9918 82.6351C48.4383 82.712 47.8745 82.6513 47.3501 82.4585C46.8257 82.2657 46.3568 81.9466 45.985 81.5296C45.5864 81.0906 45.3008 80.5611 45.1529 79.9869C45.0051 79.4126 44.9995 78.811 45.1365 78.2341C46.5593 71.8922 49.3671 65.9434 53.3588 60.814C57.3506 55.6847 62.4274 51.5017 68.2256 48.5648C73.1673 46.1502 78.6066 44.9286 84.1062 44.9983C89.6058 45.068 95.0124 46.427 99.8913 48.9661C107.601 52.733 113.834 58.9654 117.601 66.6755C120.14 71.5542 121.499 76.9606 121.57 82.4602C121.64 87.9597 120.419 93.3991 118.006 98.3411Z" fill="#162C4E"/>
    <path d="M61.73 76.6709C65.6189 76.6709 68.7715 73.5183 68.7715 69.6294C68.7715 65.7405 65.6189 62.5879 61.73 62.5879C57.8411 62.5879 54.6885 65.7405 54.6885 69.6294C54.6885 73.5183 57.8411 76.6709 61.73 76.6709Z" fill="#162C4E"/>
    <path d="M79.3335 66.1086C83.2224 66.1086 86.375 62.9561 86.375 59.0671C86.375 55.1782 83.2224 52.0256 79.3335 52.0256C75.4446 52.0256 72.292 55.1782 72.292 59.0671C72.292 62.9561 75.4446 66.1086 79.3335 66.1086Z" fill="#162C4E"/>
    <path d="M96.9375 111.878C100.826 111.878 103.979 108.726 103.979 104.837C103.979 100.948 100.826 97.7954 96.9375 97.7954C93.0486 97.7954 89.896 100.948 89.896 104.837C89.896 108.726 93.0486 111.878 96.9375 111.878Z" fill="#162C4E"/>
    <path d="M107.5 94.2747C111.388 94.2747 114.541 91.1221 114.541 87.2332C114.541 83.3442 111.388 80.1917 107.5 80.1917C103.611 80.1917 100.458 83.3442 100.458 87.2332C100.458 91.1221 103.611 94.2747 107.5 94.2747Z" fill="#162C4E"/>
    <path d="M100.458 73.1501C104.347 73.1501 107.5 69.9976 107.5 66.1086C107.5 62.2197 104.347 59.0671 100.458 59.0671C96.5691 59.0671 93.4165 62.2197 93.4165 66.1086C93.4165 69.9976 96.5691 73.1501 100.458 73.1501Z" fill="#162C4E"/>
</svg>
