<svg width="20" height="20" viewBox="0 0 20 20" fill="none" xmlns="http://www.w3.org/2000/svg">
    <g clip-path="url(#clip0_311_347)">
        <path d="M9.9252 19.5253C4.63175 19.5253 0.325195 15.2187 0.325195 9.92527C0.325195 4.63185 4.63175 0.325287 9.9252 0.325287C15.2186 0.325287 19.5252 4.63185 19.5252 9.92527C19.5252 15.2187 15.2186 19.5253 9.9252 19.5253ZM9.9252 1.60529C5.33746 1.60529 1.60519 5.33755 1.60519 9.92527C1.60519 14.513 5.33746 18.2453 9.9252 18.2453C14.513 18.2453 18.2452 14.513 18.2452 9.92527C18.2452 5.33755 14.513 1.60529 9.9252 1.60529Z" fill="#162C4E"/>
        <path d="M15.4279 9.28527H10.5652V4.42256C10.5652 4.06907 10.2787 3.78256 9.92516 3.78256C9.57172 3.78256 9.28516 4.06907 9.28516 4.42256V9.92527C9.28516 10.2788 9.57172 10.5653 9.92516 10.5653H15.4279C15.7814 10.5653 16.0679 10.2788 16.0679 9.92527C16.0679 9.57175 15.7814 9.28527 15.4279 9.28527Z" fill="#162C4E"/>
    </g>
    <defs>
        <clipPath id="clip0_311_347">
            <rect width="20" height="20" fill="white"/>
        </clipPath>
    </defs>
</svg>
