<svg width="20" height="20" viewBox="0 0 20 20" fill="none" xmlns="http://www.w3.org/2000/svg">
    <g clip-path="url(#clip0_304_207)">
        <path
            d="M19.0145 19.8677H17.6826C17.6826 15.6253 14.2311 12.1738 9.9887 12.1738C5.74626 12.1738 2.29501 15.6253 2.29501 19.8677H0.962891C0.962891 14.8907 5.01192 10.8419 9.9887 10.8419C14.9657 10.8419 19.0145 14.8907 19.0145 19.8677Z"
            fill="#162C4E" />
        <path
            d="M9.98853 10.3155C7.17479 10.3155 4.88574 8.02641 4.88574 5.21268C4.88574 2.39895 7.17479 0.109894 9.98853 0.109894C12.802 0.109894 15.0913 2.39895 15.0913 5.21268C15.0913 8.02641 12.802 10.3155 9.98853 10.3155ZM9.98853 1.44179C7.90935 1.44179 6.21786 3.13328 6.21786 5.21246C6.21786 7.29164 7.90935 8.98335 9.98853 8.98335C12.0677 8.98335 13.7592 7.29186 13.7592 5.21246C13.7592 3.1335 12.0677 1.44179 9.98853 1.44179Z"
            fill="#162C4E" />
    </g>
    <defs>
        <clipPath id="clip0_304_207">
            <rect width="20" height="20" fill="white" />
        </clipPath>
    </defs>
</svg>
