<svg width="167" height="167" viewBox="0 0 167 167" fill="none" xmlns="http://www.w3.org/2000/svg">
    <circle cx="83.5" cy="83.5" r="83.5" fill="#F1F6FB"/>
    <path d="M80.6788 87.2791C66.8193 87.2791 55.5393 75.9991 55.5393 62.1395C55.5393 48.28 66.8193 37 80.6788 37C94.5384 37 105.818 48.28 105.818 62.1395C105.818 75.9991 94.5384 87.2791 80.6788 87.2791ZM80.6788 43.5581C70.4481 43.5581 62.0974 51.9088 62.0974 62.1395C62.0974 72.3702 70.4481 80.7209 80.6788 80.7209C90.9095 80.7209 99.2602 72.3702 99.2602 62.1395C99.2602 51.9088 90.9095 43.5581 80.6788 43.5581Z" fill="black"/>
    <path d="M97.3787 131C95.7173 131 94.1433 130.387 93.0066 129.251C91.6512 127.895 91.0391 125.928 91.3452 123.873L92.1759 117.971C92.3945 116.441 93.3126 114.648 94.4056 113.511L109.883 98.034C116.091 91.8256 121.556 95.367 124.223 98.034C126.497 100.307 127.677 102.756 127.677 105.204C127.677 107.696 126.541 110.014 124.223 112.331L108.746 127.808C107.653 128.901 105.817 129.819 104.287 130.038L98.3838 130.868C98.034 130.955 97.7284 131 97.3787 131ZM117.009 101.138C116.222 101.138 115.523 101.663 114.517 102.668L99.04 118.146C98.9089 118.277 98.6903 118.714 98.6903 118.889L97.9033 124.354L103.368 123.567C103.543 123.523 103.98 123.305 104.111 123.174L119.589 107.696C120.288 106.997 121.119 105.991 121.119 105.204C121.119 104.548 120.594 103.63 119.589 102.668C118.54 101.619 117.753 101.138 117.009 101.138Z" fill="black"/>
    <path d="M119.681 115.566C119.375 115.566 119.068 115.522 118.806 115.435C113.035 113.817 108.444 109.227 106.827 103.455C106.346 101.707 107.351 99.914 109.1 99.433C110.849 98.9521 112.641 99.9577 113.122 101.707C114.128 105.292 116.97 108.134 120.555 109.139C122.304 109.62 123.309 111.456 122.828 113.161C122.435 114.604 121.123 115.566 119.681 115.566Z" fill="black"/>
    <path d="M43.1233 131C41.3307 131 39.8442 129.513 39.8442 127.721C39.8442 109.052 58.1634 93.8372 80.6798 93.8372C85.4453 93.8372 90.1672 94.5367 94.583 95.8483C96.3318 96.373 97.2937 98.2093 96.7691 99.9144C96.2444 101.663 94.4081 102.625 92.703 102.1C88.8556 100.964 84.8332 100.352 80.6798 100.352C61.7922 100.352 46.4024 112.593 46.4024 127.677C46.4024 129.513 44.9159 131 43.1233 131Z" fill="black"/>
</svg>
