<svg id="svg" version="1.1" xmlns="http://www.w3.org/2000/svg" xmlns:xlink="http://www.w3.org/1999/xlink" width="400" height="118.34319526627219" viewBox="0, 0, 400,118.34319526627219"><g id="svgg"><path id="path0" d="M130.896 0.214 C 130.426 0.482,129.718 1.343,129.505 1.904 C 129.247 2.581,129.267 116.063,129.525 116.553 C 130.250 117.931,130.917 118.320,132.572 118.327 L 133.895 118.333 134.697 117.501 L 135.500 116.668 135.500 59.326 C 135.500 9.579,135.468 1.922,135.259 1.516 C 134.559 0.164,132.211 -0.537,130.896 0.214 M135.010 1.685 C 135.328 2.310,135.333 3.208,135.331 59.202 L 135.328 116.083 134.956 116.732 C 134.751 117.089,134.433 117.480,134.250 117.600 C 133.917 117.819,133.917 117.780,133.917 59.183 L 133.917 0.547 134.301 0.799 C 134.513 0.938,134.832 1.336,135.010 1.685 M55.750 3.864 C 48.510 4.443,38.835 7.591,32.874 11.308 C 30.669 12.683,29.043 13.768,28.673 14.110 C 28.442 14.325,28.196 14.500,28.125 14.500 C 27.864 14.500,25.421 16.516,23.345 18.445 C 20.438 21.145,17.489 24.502,15.833 26.993 C 15.604 27.338,14.969 28.287,14.422 29.102 C 13.290 30.788,12.987 31.324,11.551 34.190 C 9.779 37.725,9.562 38.242,8.285 42.000 C 7.720 43.661,7.734 49.944,8.305 51.370 C 9.669 54.776,13.932 55.103,15.613 51.931 C 15.874 51.438,15.864 50.491,15.565 47.274 C 15.431 45.830,15.747 43.904,16.336 42.583 C 16.581 42.033,16.880 41.283,17.000 40.917 C 17.407 39.678,19.746 35.087,20.567 33.917 C 20.760 33.642,20.992 33.289,21.084 33.134 C 21.512 32.406,22.845 30.535,23.233 30.116 C 23.472 29.860,23.667 29.593,23.667 29.525 C 23.667 29.457,23.948 29.094,24.292 28.720 C 24.635 28.345,25.517 27.381,26.250 26.577 C 27.901 24.766,31.844 21.200,32.392 21.021 C 32.497 20.987,32.771 20.793,33.000 20.591 C 33.573 20.085,36.125 18.333,36.289 18.333 C 36.363 18.333,36.684 18.158,37.003 17.943 C 38.087 17.213,43.650 14.500,44.061 14.500 C 44.169 14.500,44.856 14.269,45.587 13.986 C 52.599 11.277,64.075 10.626,71.571 12.514 C 72.678 12.792,73.883 13.084,74.250 13.162 C 75.226 13.370,78.978 14.721,79.990 15.229 C 80.469 15.470,80.948 15.668,81.055 15.669 C 81.162 15.670,82.150 16.168,83.250 16.775 C 84.350 17.382,85.487 18.007,85.776 18.163 C 86.249 18.419,88.110 19.669,89.664 20.773 C 91.713 22.230,94.955 25.225,96.917 27.473 C 97.192 27.789,97.619 28.263,97.867 28.528 C 98.115 28.793,98.488 29.252,98.695 29.547 C 98.903 29.842,99.165 30.179,99.278 30.296 C 99.482 30.505,100.926 32.585,101.250 33.134 C 101.342 33.289,101.649 33.754,101.933 34.167 C 102.217 34.579,102.563 35.142,102.702 35.417 C 102.841 35.692,103.383 36.742,103.907 37.750 C 104.831 39.530,105.082 40.111,106.141 42.917 C 109.525 51.884,109.934 63.637,107.164 72.286 C 106.890 73.139,106.667 73.921,106.667 74.023 C 106.667 74.814,103.188 82.341,102.027 84.063 C 100.683 86.055,100.399 86.478,99.945 87.167 C 99.672 87.579,99.364 87.992,99.260 88.083 C 99.156 88.175,98.896 88.500,98.682 88.805 C 98.467 89.110,98.133 89.533,97.938 89.744 C 97.743 89.956,97.332 90.418,97.026 90.773 C 96.220 91.704,93.315 94.667,93.208 94.667 C 93.129 94.667,92.737 95.003,91.000 96.564 C 90.771 96.770,90.358 97.082,90.083 97.257 C 89.808 97.432,89.546 97.621,89.500 97.676 C 89.377 97.824,86.182 100.000,86.087 100.000 C 86.043 100.000,85.611 100.246,85.128 100.547 C 84.305 101.059,82.392 102.025,80.083 103.094 C 74.044 105.890,64.787 107.465,58.000 106.851 C 53.449 106.439,52.677 106.330,50.750 105.831 C 49.650 105.546,48.450 105.249,48.083 105.171 C 47.121 104.966,43.440 103.639,42.132 103.025 C 41.517 102.736,40.967 102.500,40.910 102.500 C 40.821 102.500,39.027 101.536,36.417 100.086 C 35.727 99.703,32.980 97.857,32.833 97.677 C 32.787 97.621,32.525 97.432,32.250 97.257 C 31.975 97.082,31.563 96.768,31.333 96.560 C 31.104 96.353,30.204 95.551,29.333 94.779 C 27.287 92.966,24.446 89.960,23.545 88.658 C 23.390 88.433,23.170 88.154,23.056 88.038 C 22.852 87.828,21.408 85.750,21.084 85.199 C 20.992 85.044,20.759 84.692,20.566 84.417 C 18.990 82.176,16.044 75.655,15.676 73.594 C 14.732 68.299,18.243 63.369,23.169 63.072 C 31.527 62.569,37.526 58.233,39.586 51.207 C 40.214 49.065,40.899 47.296,41.550 46.132 C 41.889 45.526,42.167 44.954,42.167 44.862 C 42.167 44.770,42.228 44.669,42.303 44.639 C 42.378 44.608,42.747 44.133,43.122 43.583 C 43.770 42.635,44.021 42.333,45.486 40.750 C 48.154 37.864,51.903 35.688,56.333 34.452 C 58.061 33.970,64.135 33.935,65.833 34.397 C 72.025 36.083,78.216 40.703,80.265 45.167 C 80.413 45.487,80.627 45.862,80.742 46.000 C 81.801 47.269,83.516 52.388,84.006 55.739 C 84.599 59.800,83.776 65.894,82.151 69.477 C 81.885 70.065,81.667 70.607,81.667 70.682 C 81.667 70.757,81.429 71.216,81.139 71.701 C 80.848 72.186,80.472 72.846,80.303 73.167 C 78.689 76.224,74.869 79.899,71.333 81.795 C 69.508 82.774,68.960 82.994,66.167 83.873 C 64.549 84.382,57.952 84.388,56.333 83.882 C 54.859 83.421,53.143 82.823,52.803 82.652 C 49.453 80.971,47.836 79.849,45.743 77.757 C 42.796 74.809,40.166 70.347,39.473 67.115 C 38.560 62.858,31.856 63.708,31.837 68.084 C 31.828 70.077,34.830 76.973,36.464 78.712 C 36.667 78.928,36.833 79.180,36.833 79.272 C 36.833 79.365,37.040 79.674,37.292 79.961 C 37.544 80.248,38.237 81.053,38.833 81.750 C 39.792 82.872,41.788 84.743,43.500 86.125 C 44.597 87.011,47.812 88.984,48.698 89.316 C 48.945 89.409,49.625 89.708,50.210 89.981 C 50.795 90.255,51.494 90.530,51.762 90.592 C 52.030 90.654,52.700 90.850,53.250 91.026 C 57.770 92.476,64.460 92.505,69.000 91.095 C 69.688 90.881,70.459 90.658,70.715 90.598 C 70.971 90.539,71.736 90.230,72.416 89.912 C 73.095 89.594,73.713 89.333,73.789 89.333 C 74.132 89.333,78.064 86.891,79.014 86.088 C 79.343 85.811,79.908 85.346,80.269 85.056 C 81.617 83.976,84.551 80.814,85.500 79.420 C 88.992 74.286,90.436 70.672,91.628 64.083 C 92.997 56.509,90.343 45.272,85.771 39.289 C 85.380 38.778,84.479 37.634,83.833 36.829 C 82.691 35.405,78.326 31.500,77.877 31.500 C 77.761 31.500,77.667 31.441,77.667 31.369 C 77.667 31.296,77.235 30.984,76.708 30.674 C 76.181 30.364,75.412 29.907,75.000 29.658 C 69.638 26.416,60.353 25.271,54.000 27.068 C 50.904 27.943,50.852 27.963,48.167 29.225 C 47.169 29.695,44.969 30.961,44.834 31.144 C 44.788 31.207,44.525 31.400,44.250 31.575 C 42.313 32.802,37.597 37.523,36.832 39.000 C 36.714 39.229,36.561 39.454,36.493 39.500 C 35.711 40.024,33.728 44.145,32.499 47.798 C 31.471 50.857,31.205 51.327,29.671 52.805 C 28.043 54.373,26.459 54.996,23.645 55.175 C 19.583 55.432,16.631 56.542,13.690 58.917 C 12.801 59.635,10.500 62.152,10.500 62.406 C 10.500 62.454,10.252 62.889,9.948 63.372 C 9.452 64.162,8.777 65.737,8.145 67.583 C 7.980 68.065,7.917 69.222,7.917 71.750 C 7.917 75.542,7.834 75.046,9.057 78.583 C 9.909 81.048,12.563 86.414,14.128 88.833 C 17.056 93.362,20.204 97.093,23.917 100.438 C 24.375 100.851,24.900 101.327,25.083 101.496 C 25.267 101.665,26.054 102.292,26.833 102.889 C 27.613 103.485,28.485 104.167,28.773 104.404 C 29.061 104.640,29.474 104.931,29.690 105.049 C 29.906 105.167,30.571 105.574,31.167 105.954 C 33.333 107.336,33.756 107.591,34.579 108.009 C 35.040 108.243,35.642 108.561,35.917 108.717 C 36.738 109.181,39.633 110.500,39.830 110.500 C 39.931 110.500,40.292 110.641,40.632 110.814 C 41.388 111.197,46.600 112.891,47.750 113.127 C 48.208 113.221,49.671 113.522,51.000 113.796 C 61.358 115.931,74.220 114.378,84.244 109.782 C 85.969 108.991,89.044 107.375,89.786 106.869 C 90.680 106.259,92.254 105.255,92.643 105.046 C 92.860 104.929,93.272 104.642,93.560 104.406 C 93.848 104.171,94.758 103.451,95.583 102.807 C 96.408 102.162,97.196 101.535,97.333 101.412 C 100.041 98.995,100.813 98.236,102.582 96.250 C 104.076 94.572,106.008 92.189,106.416 91.522 C 106.508 91.372,106.852 90.875,107.181 90.417 C 107.736 89.643,108.390 88.607,109.004 87.530 C 109.144 87.284,109.538 86.611,109.879 86.033 C 110.221 85.455,110.500 84.922,110.500 84.847 C 110.500 84.773,110.800 84.167,111.167 83.500 C 111.533 82.833,111.833 82.226,111.833 82.151 C 111.833 82.076,112.058 81.543,112.333 80.966 C 112.793 80.002,113.998 76.770,114.341 75.583 C 114.949 73.481,115.674 70.622,115.758 70.000 C 115.814 69.587,116.001 68.350,116.175 67.250 C 117.713 57.526,116.225 45.903,112.358 37.435 C 112.069 36.804,111.833 36.229,111.833 36.159 C 111.833 36.088,111.533 35.500,111.167 34.853 C 110.800 34.206,110.500 33.598,110.500 33.501 C 110.500 33.404,110.200 32.850,109.833 32.270 C 109.467 31.689,109.167 31.158,109.167 31.089 C 109.167 30.931,107.649 28.583,107.116 27.917 C 106.896 27.642,106.618 27.229,106.498 27.000 C 106.378 26.771,106.067 26.321,105.807 26.000 C 105.547 25.679,104.954 24.929,104.489 24.333 C 103.717 23.343,101.578 20.925,100.738 20.092 C 98.584 17.955,94.550 14.500,94.208 14.500 C 94.138 14.500,93.893 14.327,93.665 14.116 C 92.994 13.496,89.323 11.152,87.667 10.286 C 87.254 10.070,86.692 9.771,86.417 9.620 C 85.590 9.167,83.027 7.985,82.539 7.833 C 82.288 7.754,81.558 7.474,80.917 7.209 C 74.080 4.393,64.714 3.148,55.750 3.864 M92.667 13.686 C 99.023 18.042,105.104 24.597,109.112 31.417 C 109.831 32.641,112.500 38.074,112.500 38.314 C 112.500 38.391,112.723 38.995,112.996 39.656 C 116.374 47.849,117.479 59.971,115.669 69.000 C 115.477 69.962,115.249 71.158,115.163 71.658 C 114.674 74.504,112.025 81.654,110.386 84.554 C 110.082 85.092,109.833 85.567,109.833 85.610 C 109.833 85.796,108.029 88.729,106.909 90.362 C 102.915 96.191,97.512 101.494,91.750 105.243 C 90.925 105.779,90.025 106.370,89.750 106.556 L 89.250 106.893 89.625 106.477 C 89.992 106.071,90.000 105.977,90.000 102.031 C 90.000 98.217,89.957 97.823,89.575 98.125 C 89.488 98.194,89.717 97.972,90.083 97.632 C 90.450 97.292,90.809 97.011,90.880 97.007 C 91.090 96.996,93.956 94.354,95.604 92.653 C 99.261 88.879,101.669 85.522,104.083 80.833 C 104.693 79.647,106.000 76.745,106.001 76.573 C 106.001 76.487,106.222 75.849,106.492 75.156 C 107.215 73.298,108.374 68.928,108.568 67.333 C 108.618 66.921,108.771 65.683,108.909 64.583 C 109.357 60.995,109.328 56.455,108.834 53.083 C 108.740 52.442,108.621 51.542,108.569 51.083 C 108.397 49.553,107.280 45.244,106.573 43.383 C 106.336 42.760,106.027 41.912,105.885 41.500 C 103.733 35.223,96.732 25.746,91.121 21.514 C 90.642 21.153,90.061 20.683,89.830 20.470 C 89.599 20.258,89.482 20.140,89.571 20.208 C 89.958 20.507,90.000 20.124,90.000 16.305 C 90.000 12.702,89.969 12.242,89.708 11.954 C 89.441 11.658,91.274 12.732,92.667 13.686 M89.612 47.443 C 89.576 47.479,89.341 47.038,89.090 46.463 C 88.412 44.914,88.410 44.740,89.086 46.148 C 89.411 46.825,89.648 47.408,89.612 47.443 M90.997 52.500 C 91.077 53.096,91.236 54.183,91.352 54.917 C 92.002 59.034,91.003 68.820,89.804 70.083 C 89.717 70.175,89.725 70.039,89.823 69.781 C 89.940 69.470,90.006 65.870,90.016 59.114 L 90.033 48.917 90.443 50.167 C 90.668 50.854,90.918 51.904,90.997 52.500 M84.448 57.125 C 84.406 57.285,84.372 57.154,84.372 56.833 C 84.372 56.512,84.406 56.381,84.448 56.542 C 84.490 56.702,84.490 56.965,84.448 57.125 M89.151 72.151 C 88.858 72.805,88.592 73.315,88.560 73.283 C 88.528 73.250,88.740 72.688,89.032 72.032 C 89.323 71.376,89.589 70.867,89.622 70.900 C 89.656 70.933,89.443 71.496,89.151 72.151 M89.084 98.499 C 89.028 98.590,88.817 98.745,88.616 98.842 C 88.269 99.010,88.271 99.001,88.643 98.676 C 89.068 98.306,89.248 98.234,89.084 98.499 " stroke="none" fill="#22b0c5" fill-rule="evenodd"></path><path id="path1" d="M133.917 59.183 C 133.917 117.780,133.917 117.819,134.250 117.600 C 134.433 117.480,134.751 117.089,134.956 116.732 L 135.328 116.083 135.331 59.202 C 135.334 -4.171,135.434 1.541,134.301 0.799 L 133.917 0.547 133.917 59.183 M89.708 11.954 C 89.969 12.242,90.000 12.702,90.000 16.305 C 90.000 20.124,89.958 20.507,89.571 20.208 C 89.482 20.140,89.599 20.258,89.830 20.470 C 90.061 20.683,90.642 21.153,91.121 21.514 C 96.732 25.746,103.733 35.223,105.885 41.500 C 106.027 41.912,106.336 42.760,106.573 43.383 C 107.280 45.244,108.397 49.553,108.569 51.083 C 108.621 51.542,108.740 52.442,108.834 53.083 C 109.328 56.455,109.357 60.995,108.909 64.583 C 108.771 65.683,108.618 66.921,108.568 67.333 C 108.374 68.928,107.215 73.298,106.492 75.156 C 106.222 75.849,106.001 76.487,106.001 76.573 C 106.000 76.745,104.693 79.647,104.083 80.833 C 101.669 85.522,99.261 88.879,95.604 92.653 C 93.956 94.354,91.090 96.996,90.880 97.007 C 90.809 97.011,90.450 97.292,90.083 97.632 C 89.717 97.972,89.488 98.194,89.575 98.125 C 89.957 97.823,90.000 98.217,90.000 102.031 C 90.000 105.977,89.992 106.071,89.625 106.477 L 89.250 106.893 89.750 106.556 C 90.025 106.370,90.925 105.779,91.750 105.243 C 97.512 101.494,102.915 96.191,106.909 90.362 C 108.029 88.729,109.833 85.796,109.833 85.610 C 109.833 85.567,110.082 85.092,110.386 84.554 C 112.025 81.654,114.674 74.504,115.163 71.658 C 115.249 71.158,115.477 69.962,115.669 69.000 C 117.479 59.971,116.374 47.849,112.996 39.656 C 112.723 38.995,112.500 38.391,112.500 38.314 C 112.500 38.074,109.831 32.641,109.112 31.417 C 105.430 25.153,100.088 19.192,94.250 14.832 C 92.273 13.356,89.235 11.430,89.708 11.954 M88.563 45.167 C 88.700 45.664,89.549 47.507,89.612 47.443 C 89.648 47.408,89.411 46.825,89.086 46.148 C 88.761 45.471,88.526 45.029,88.563 45.167 M90.016 59.114 C 90.006 65.870,89.940 69.470,89.823 69.781 C 89.725 70.039,89.717 70.175,89.804 70.083 C 91.003 68.820,92.002 59.034,91.352 54.917 C 91.236 54.183,91.077 53.096,90.997 52.500 C 90.918 51.904,90.668 50.854,90.443 50.167 L 90.033 48.917 90.016 59.114 M84.372 56.833 C 84.372 57.154,84.406 57.285,84.448 57.125 C 84.490 56.965,84.490 56.702,84.448 56.542 C 84.406 56.381,84.372 56.512,84.372 56.833 M89.032 72.032 C 88.740 72.688,88.528 73.250,88.560 73.283 C 88.592 73.315,88.858 72.805,89.151 72.151 C 89.443 71.496,89.656 70.933,89.622 70.900 C 89.589 70.867,89.323 71.376,89.032 72.032 M88.643 98.676 C 88.271 99.001,88.269 99.010,88.616 98.842 C 88.817 98.745,89.028 98.590,89.084 98.499 C 89.248 98.234,89.068 98.306,88.643 98.676 " stroke="none" fill="#04a49c" fill-rule="evenodd"></path><path id="path2" d="M344.250 40.506 C 343.792 40.579,342.875 40.719,342.213 40.818 C 340.126 41.129,336.197 42.804,334.196 44.235 C 332.465 45.473,329.000 48.816,329.000 49.248 C 329.000 49.306,328.780 49.630,328.511 49.968 C 327.307 51.483,325.563 55.308,325.168 57.301 C 323.807 64.165,325.041 70.641,328.673 75.709 C 334.600 83.977,346.496 87.534,355.167 83.630 C 357.787 82.451,358.741 81.909,360.833 80.413 C 361.595 79.868,364.500 76.995,364.500 76.786 C 364.500 76.697,364.731 76.352,365.014 76.020 C 372.382 67.369,369.928 51.189,360.250 44.614 C 359.700 44.241,359.156 43.842,359.041 43.728 C 358.926 43.615,358.674 43.472,358.482 43.411 C 358.290 43.350,357.872 43.123,357.554 42.907 C 356.983 42.520,356.211 42.196,353.917 41.381 C 351.629 40.568,346.691 40.121,344.250 40.506 M150.739 41.132 C 147.652 42.853,147.065 46.526,149.476 49.040 C 150.541 50.150,151.275 50.333,154.651 50.333 L 157.333 50.333 157.333 65.504 C 157.333 82.628,157.274 81.817,158.624 83.217 C 160.442 85.101,164.855 85.098,165.714 83.212 C 165.809 83.004,165.944 82.833,166.015 82.833 C 166.085 82.833,166.335 82.425,166.571 81.927 L 167.000 81.021 167.000 65.677 L 167.000 50.333 169.689 50.333 C 173.243 50.333,174.169 50.049,175.318 48.603 C 177.269 46.148,176.432 42.599,173.550 41.109 C 172.722 40.681,151.510 40.703,150.739 41.132 M195.520 41.006 C 195.302 41.097,194.771 41.467,194.340 41.828 C 193.409 42.607,193.201 43.005,190.167 49.833 C 188.685 53.166,188.092 54.480,187.478 55.788 C 187.123 56.542,186.833 57.219,186.833 57.293 C 186.833 57.366,186.600 57.874,186.314 58.421 C 186.028 58.969,185.694 59.697,185.572 60.040 C 185.450 60.382,185.126 61.132,184.852 61.706 C 184.578 62.280,184.041 63.462,183.659 64.333 C 183.276 65.204,182.630 66.667,182.221 67.583 C 181.813 68.500,181.229 69.813,180.924 70.500 C 180.225 72.076,179.026 74.731,178.329 76.250 C 176.104 81.097,177.955 84.934,182.369 84.624 C 184.135 84.500,186.500 82.950,186.500 81.917 C 186.500 81.807,187.713 79.088,188.396 77.667 L 188.596 77.250 197.553 77.207 C 205.976 77.166,206.515 77.181,206.599 77.457 C 206.688 77.745,207.245 79.012,208.389 81.527 C 210.359 85.857,216.026 85.766,217.488 81.380 C 218.048 79.701,217.901 78.923,216.393 75.583 C 215.979 74.667,215.337 73.242,214.966 72.417 C 214.595 71.592,214.049 70.392,213.751 69.750 C 213.454 69.108,213.155 68.404,213.086 68.184 C 213.018 67.965,212.708 67.298,212.398 66.702 C 212.087 66.107,211.833 65.556,211.833 65.479 C 211.833 65.402,211.526 64.681,211.150 63.878 C 210.507 62.504,210.132 61.673,208.500 58.000 C 206.874 54.342,206.423 53.345,205.895 52.243 C 205.586 51.597,205.333 51.001,205.333 50.919 C 205.333 50.836,205.078 50.240,204.765 49.593 C 204.452 48.946,203.994 47.929,203.748 47.333 C 203.501 46.737,203.240 46.175,203.168 46.083 C 203.096 45.992,202.829 45.392,202.575 44.750 C 202.004 43.309,201.107 42.068,200.163 41.414 C 199.386 40.875,196.450 40.617,195.520 41.006 M227.872 41.105 C 227.025 41.529,226.012 42.608,225.571 43.555 L 225.170 44.417 225.172 62.750 C 225.174 83.293,225.074 81.577,226.366 83.208 C 227.975 85.240,231.743 85.287,233.600 83.299 C 234.797 82.018,234.833 81.760,234.833 74.594 L 234.833 68.167 238.042 68.157 C 245.475 68.135,250.652 64.563,252.523 58.167 C 252.875 56.962,252.813 51.483,252.434 50.417 C 250.907 46.110,248.267 43.288,244.167 41.577 L 242.583 40.917 235.500 40.874 C 229.218 40.837,228.355 40.863,227.872 41.105 M276.372 41.109 C 275.530 41.524,274.514 42.605,274.071 43.555 L 273.670 44.417 273.668 62.695 C 273.666 82.964,273.596 81.616,274.730 82.917 C 274.970 83.192,275.166 83.461,275.166 83.515 C 275.167 83.569,275.560 83.832,276.042 84.099 L 276.917 84.583 283.583 84.583 C 291.239 84.583,291.521 84.543,294.267 83.044 C 295.636 82.296,298.667 79.625,298.667 79.166 C 298.667 79.080,298.892 78.689,299.167 78.297 C 302.147 74.052,301.577 66.781,297.933 62.567 L 297.383 61.930 297.937 61.063 C 299.109 59.230,299.700 57.165,299.790 54.583 C 300.014 48.177,296.203 42.998,289.842 41.067 C 288.641 40.703,277.124 40.739,276.372 41.109 M311.021 41.013 C 310.307 41.299,309.365 42.162,308.803 43.047 L 308.250 43.917 308.205 62.479 L 308.161 81.041 308.564 81.921 C 310.266 85.638,315.645 85.635,317.365 81.917 L 317.750 81.083 317.797 63.083 L 317.844 45.083 317.478 43.938 C 316.680 41.443,313.522 40.012,311.021 41.013 M350.917 50.743 C 357.214 53.133,360.501 58.904,359.260 65.392 C 358.990 66.801,358.044 68.904,357.216 69.934 C 356.914 70.310,356.667 70.657,356.667 70.706 C 356.667 70.824,354.970 72.499,354.847 72.503 C 354.793 72.504,354.496 72.729,354.186 73.002 C 351.257 75.584,345.252 76.091,341.379 74.082 C 337.127 71.877,334.596 67.977,334.375 63.286 C 333.955 54.393,342.821 47.671,350.917 50.743 M240.911 50.921 C 243.299 52.129,243.867 54.834,242.180 56.961 C 241.255 58.127,240.510 58.359,237.375 58.459 L 234.833 58.541 234.833 54.417 L 234.833 50.293 237.387 50.361 C 239.816 50.427,239.987 50.454,240.911 50.921 M286.834 50.500 C 290.155 51.130,291.265 54.942,288.715 56.962 C 287.739 57.735,287.346 57.833,285.239 57.833 L 283.333 57.833 283.333 54.083 L 283.333 50.333 284.644 50.333 C 285.365 50.333,286.350 50.408,286.834 50.500 M198.125 58.629 C 198.423 59.249,198.667 59.814,198.667 59.883 C 198.667 59.953,198.922 60.527,199.235 61.159 C 199.547 61.791,199.858 62.483,199.925 62.696 C 199.992 62.909,200.291 63.608,200.588 64.250 C 201.346 65.886,202.000 67.362,202.000 67.437 C 202.000 67.472,200.004 67.500,197.565 67.500 L 193.131 67.500 193.244 67.050 C 193.306 66.802,193.640 65.996,193.986 65.258 C 194.332 64.520,194.919 63.242,195.291 62.417 C 195.662 61.592,196.274 60.240,196.650 59.414 C 197.026 58.588,197.333 57.819,197.333 57.706 C 197.333 57.238,197.615 57.566,198.125 58.629 M289.081 67.978 C 292.205 69.375,292.085 73.405,288.880 74.771 C 288.505 74.931,287.590 75.000,285.839 75.000 L 283.333 75.000 283.333 71.229 L 283.333 67.459 285.792 67.532 C 287.874 67.594,288.377 67.663,289.081 67.978 M261.583 76.115 C 260.246 76.423,259.923 76.579,259.302 77.217 C 255.728 80.890,259.896 86.421,264.546 84.176 C 268.842 82.104,266.247 75.043,261.583 76.115 " stroke="none" fill="#040404" fill-rule="evenodd"></path><path id="path3" d="" stroke="none" fill="#4c7040" fill-rule="evenodd"></path><path id="path4" d="" stroke="none" fill="#500440" fill-rule="evenodd"></path><path id="path5" d="" stroke="none" fill="#040444" fill-rule="evenodd"></path><path id="path6" d="" stroke="none" fill="#080404" fill-rule="evenodd"></path><path id="path7" d="" stroke="none" fill="#080404" fill-rule="evenodd"></path></g></svg>