<svg width="53" height="53" viewBox="0 0 53 53" fill="none" xmlns="http://www.w3.org/2000/svg">
    <rect x="0.0717773" y="0.974091" width="51.9757" height="51.9757" rx="4.32581" fill="#E7F0F4"/>
    <path d="M39.8353 24.4432C37.8827 21.173 33.5 15.6871 26.1016 15.6871C18.7031 15.6871 14.3204 21.173 12.3678 24.4432C11.3461 26.1504 11.3461 28.2727 12.3678 29.9814C14.3204 33.2516 18.7031 38.7375 26.1016 38.7375C33.5 38.7375 37.8827 33.2516 39.8353 29.9814C40.857 28.2727 40.857 26.1519 39.8353 24.4432ZM37.9212 28.8363C36.211 31.7005 32.3995 36.5068 26.1016 36.5068C19.8036 36.5068 15.9921 31.702 14.2819 28.8363C13.6841 27.834 13.6841 26.5892 14.2819 25.5868C15.9921 22.7226 19.8036 17.9163 26.1016 17.9163C32.3995 17.9163 36.211 22.7211 37.9212 25.5868C38.5205 26.5906 38.5205 27.834 37.9212 28.8363ZM26.1016 20.892C22.6157 20.892 19.7813 23.728 19.7813 27.2123C19.7813 30.6966 22.6157 33.5326 26.1016 33.5326C29.5874 33.5326 32.4218 30.6966 32.4218 27.2123C32.4218 23.728 29.5874 20.892 26.1016 20.892ZM26.1016 31.3019C23.8456 31.3019 22.012 29.4683 22.012 27.2123C22.012 24.9563 23.8456 23.1227 26.1016 23.1227C28.3575 23.1227 30.1912 24.9563 30.1912 27.2123C30.1912 29.4683 28.3575 31.3019 26.1016 31.3019Z" fill="#25314C"/>
</svg>
