<svg id="svg" version="1.1" xmlns="http://www.w3.org/2000/svg" xmlns:xlink="http://www.w3.org/1999/xlink" width="400" height="118.34319526627219" viewBox="0, 0, 400,118.34319526627219"><g id="svgg"><path id="path0" d="M131.750 0.176 C 131.475 0.256,130.987 0.549,130.667 0.827 C 130.346 1.104,130.215 1.286,130.376 1.231 C 130.654 1.135,130.668 3.921,130.662 59.357 L 130.656 117.583 131.120 117.874 C 132.264 118.592,133.934 118.288,134.832 117.199 L 135.333 116.591 135.333 59.167 L 135.333 1.743 134.824 1.125 C 134.110 0.259,132.825 -0.138,131.750 0.176 M57.083 3.934 C 47.245 4.915,39.278 7.564,31.667 12.388 C 29.819 13.558,26.525 15.979,26.165 16.431 C 26.029 16.602,26.217 16.499,26.583 16.202 L 27.250 15.660 27.294 20.195 L 27.339 24.730 26.785 25.324 C 25.591 26.604,25.824 26.506,27.167 25.164 C 33.020 19.311,42.434 13.972,49.333 12.594 C 49.563 12.548,50.624 12.320,51.691 12.087 C 54.873 11.394,57.151 11.206,61.495 11.275 C 63.652 11.309,65.567 11.336,65.750 11.335 C 66.465 11.331,69.669 11.877,71.333 12.287 C 72.296 12.524,73.215 12.711,73.375 12.703 C 73.535 12.694,73.667 12.762,73.667 12.854 C 73.667 12.945,73.729 12.981,73.805 12.934 C 73.966 12.835,74.939 13.117,76.583 13.741 C 77.225 13.984,77.769 14.179,77.792 14.175 C 78.035 14.127,78.167 14.198,78.085 14.331 C 78.028 14.423,78.089 14.455,78.224 14.403 C 78.357 14.352,78.830 14.493,79.275 14.716 C 79.719 14.939,80.365 15.212,80.710 15.324 C 81.081 15.444,81.291 15.600,81.226 15.706 C 81.162 15.810,81.193 15.837,81.301 15.770 C 81.735 15.502,86.706 18.379,89.750 20.661 C 91.668 22.099,94.770 24.833,94.708 25.032 C 94.685 25.106,94.726 25.148,94.799 25.125 C 95.023 25.054,96.841 27.020,96.725 27.208 C 96.663 27.307,96.694 27.336,96.794 27.274 C 97.014 27.138,98.859 29.324,98.717 29.553 C 98.661 29.644,98.683 29.676,98.767 29.625 C 98.850 29.573,99.180 29.903,99.501 30.358 C 99.821 30.812,100.346 31.536,100.667 31.967 C 102.042 33.812,105.199 39.592,105.419 40.667 C 105.447 40.804,105.706 41.438,105.993 42.075 C 106.556 43.323,107.194 45.487,107.062 45.702 C 107.017 45.774,107.049 45.833,107.134 45.833 C 107.261 45.833,107.538 46.693,108.120 48.896 C 108.181 49.126,108.143 49.172,107.976 49.072 C 107.799 48.966,107.791 48.988,107.937 49.176 C 108.166 49.471,108.761 52.674,108.995 54.868 C 109.373 58.423,109.119 63.996,108.430 67.272 C 108.292 67.926,108.143 68.825,108.098 69.272 C 108.052 69.718,107.751 70.908,107.427 71.917 C 107.104 72.925,106.838 73.881,106.836 74.042 C 106.835 74.202,106.754 74.333,106.657 74.333 C 106.560 74.333,106.526 74.407,106.582 74.497 C 106.638 74.588,106.417 75.276,106.092 76.027 C 105.766 76.778,105.500 77.463,105.500 77.549 C 105.500 77.768,103.701 81.449,103.223 82.208 C 103.006 82.552,102.866 82.833,102.911 82.833 C 103.084 82.833,100.830 86.220,99.314 88.236 C 97.951 90.051,97.553 90.496,97.408 90.366 C 97.338 90.302,97.325 90.329,97.380 90.426 C 97.490 90.621,94.875 93.441,94.645 93.375 C 94.565 93.352,94.515 93.390,94.533 93.458 C 94.623 93.804,88.441 99.000,87.940 99.000 C 87.882 99.000,87.469 99.262,87.022 99.583 C 86.576 99.904,86.158 100.167,86.093 100.167 C 86.029 100.167,85.663 100.380,85.280 100.641 C 84.373 101.260,81.501 102.702,81.497 102.541 C 81.496 102.473,81.440 102.501,81.372 102.605 C 81.257 102.783,78.251 104.128,77.683 104.255 C 77.536 104.288,76.667 104.578,75.750 104.900 C 74.833 105.221,73.558 105.596,72.917 105.732 C 72.275 105.869,71.037 106.140,70.167 106.335 C 69.296 106.529,68.171 106.730,67.667 106.781 C 67.162 106.832,66.450 106.905,66.083 106.944 C 52.074 108.417,37.535 103.355,27.505 93.513 C 26.586 92.611,25.833 91.917,25.833 91.972 C 25.833 92.027,26.172 92.416,26.586 92.836 L 27.339 93.600 27.294 98.165 L 27.250 102.730 26.583 102.157 C 26.217 101.841,26.028 101.724,26.164 101.897 C 26.762 102.657,31.263 105.803,33.922 107.320 C 39.091 110.268,47.141 113.190,51.667 113.761 C 51.987 113.801,53.112 113.953,54.167 114.098 C 55.221 114.243,57.886 114.402,60.088 114.451 C 63.979 114.537,64.663 114.499,70.000 113.902 C 70.412 113.856,71.575 113.624,72.583 113.388 C 73.592 113.151,74.585 112.948,74.792 112.937 C 74.998 112.926,75.167 112.860,75.167 112.792 C 75.167 112.723,75.332 112.667,75.534 112.667 C 76.005 112.667,80.700 111.124,81.849 110.591 C 82.332 110.367,82.789 110.222,82.864 110.269 C 82.939 110.315,83.000 110.261,83.000 110.149 C 83.000 110.036,83.046 109.991,83.102 110.047 C 83.214 110.159,88.576 107.452,89.650 106.741 C 90.028 106.491,90.401 106.356,90.516 106.427 C 90.627 106.495,90.676 106.484,90.625 106.401 C 90.574 106.318,91.031 105.912,91.640 105.500 C 97.022 101.856,102.320 96.883,105.489 92.500 C 105.986 91.813,106.679 90.868,107.030 90.401 C 107.380 89.934,107.667 89.499,107.667 89.434 C 107.667 89.368,107.967 88.873,108.333 88.333 C 108.700 87.793,109.000 87.290,109.000 87.215 C 109.000 87.139,109.178 86.816,109.395 86.496 C 109.612 86.176,110.150 85.221,110.589 84.374 C 111.029 83.527,111.456 82.833,111.537 82.833 C 111.619 82.833,111.639 82.757,111.582 82.665 C 111.525 82.572,111.795 81.806,112.183 80.964 C 112.571 80.121,112.889 79.335,112.889 79.216 C 112.889 79.097,112.939 79.000,113.000 79.000 C 113.061 79.000,113.111 78.906,113.111 78.791 C 113.111 78.675,113.354 77.951,113.651 77.181 C 113.948 76.410,114.202 75.642,114.215 75.473 C 114.227 75.305,114.301 75.167,114.379 75.167 C 114.456 75.167,114.481 75.105,114.434 75.029 C 114.387 74.953,114.644 73.855,115.004 72.590 C 115.364 71.325,115.619 70.224,115.570 70.145 C 115.521 70.065,115.535 69.912,115.601 69.804 C 115.668 69.697,115.735 69.416,115.751 69.179 C 115.767 68.943,115.958 67.662,116.175 66.333 C 116.756 62.785,116.753 55.572,116.171 52.000 C 115.954 50.671,115.771 49.377,115.763 49.125 C 115.756 48.873,115.685 48.667,115.606 48.667 C 115.526 48.667,115.498 48.526,115.543 48.353 C 115.623 48.049,115.124 45.962,114.581 44.327 C 114.434 43.884,114.330 43.423,114.350 43.303 C 114.370 43.182,114.326 42.933,114.252 42.750 C 113.699 41.369,113.111 39.716,113.111 39.543 C 113.111 39.428,113.061 39.333,113.000 39.333 C 112.939 39.333,112.888 39.240,112.887 39.125 C 112.886 39.010,112.611 38.325,112.276 37.602 C 111.941 36.878,111.667 36.224,111.667 36.149 C 111.667 36.073,111.171 35.090,110.565 33.964 C 109.959 32.838,109.459 31.826,109.454 31.716 C 109.449 31.605,109.390 31.548,109.323 31.590 C 109.150 31.697,108.977 31.174,109.110 30.943 C 109.170 30.837,109.161 30.803,109.089 30.868 C 108.973 30.973,107.667 29.150,107.667 28.885 C 107.667 28.828,107.381 28.399,107.031 27.932 C 105.474 25.854,105.083 25.307,105.083 25.206 C 105.083 25.147,104.813 24.833,104.481 24.508 C 104.150 24.183,103.813 23.793,103.731 23.641 C 103.421 23.063,99.999 19.563,98.083 17.864 C 96.983 16.888,96.046 16.050,96.000 16.002 C 95.875 15.870,94.563 14.915,93.250 13.998 C 92.608 13.550,91.893 13.037,91.660 12.858 C 91.427 12.679,90.864 12.328,90.410 12.078 C 89.955 11.829,89.345 11.446,89.053 11.229 C 88.761 11.011,88.443 10.833,88.347 10.833 C 88.251 10.833,87.814 10.616,87.378 10.350 C 86.941 10.085,85.966 9.588,85.212 9.245 C 84.429 8.890,83.886 8.550,83.946 8.453 C 84.007 8.355,83.970 8.332,83.859 8.401 C 83.753 8.466,83.573 8.461,83.458 8.390 C 83.344 8.318,83.171 8.247,83.074 8.233 C 82.978 8.218,82.265 7.944,81.491 7.625 C 78.328 6.320,72.016 4.601,69.642 4.397 C 69.060 4.347,68.096 4.232,67.500 4.141 C 66.398 3.974,58.299 3.813,57.083 3.934 M25.250 17.104 C 24.950 17.359,24.889 17.461,25.097 17.357 C 25.403 17.205,25.976 16.657,25.812 16.673 C 25.778 16.676,25.525 16.870,25.250 17.104 M59.167 26.438 C 47.940 27.718,39.661 33.376,34.529 43.277 C 33.932 44.429,32.500 48.352,32.500 48.836 C 32.500 50.332,29.876 53.426,27.583 54.634 C 27.216 54.827,27.010 54.989,27.125 54.993 C 27.285 54.998,27.333 55.814,27.333 58.495 L 27.333 61.990 26.792 62.160 C 26.208 62.343,26.236 62.340,28.083 62.052 C 29.002 61.909,31.733 60.641,32.991 59.774 C 36.285 57.503,38.223 54.712,39.603 50.250 C 40.448 47.522,41.835 44.817,43.515 42.625 C 44.399 41.471,45.209 40.673,45.386 40.783 C 45.477 40.839,45.506 40.811,45.450 40.721 C 45.341 40.544,46.617 39.257,47.833 38.318 C 49.949 36.683,52.692 35.283,55.083 34.615 C 59.590 33.357,63.137 33.382,67.417 34.700 C 70.387 35.615,75.237 38.377,75.038 39.039 C 75.012 39.123,75.059 39.150,75.142 39.098 C 75.742 38.728,81.212 45.399,80.716 45.896 C 80.658 45.953,80.691 46.000,80.789 46.000 C 81.048 46.000,81.690 47.158,81.559 47.388 C 81.497 47.495,81.509 47.526,81.586 47.456 C 81.721 47.334,83.058 50.487,83.230 51.333 C 83.276 51.563,83.521 52.612,83.774 53.667 C 84.462 56.532,84.462 61.808,83.775 64.667 C 83.522 65.721,83.277 66.771,83.231 67.000 C 83.185 67.229,83.076 67.442,82.989 67.473 C 82.902 67.503,82.871 67.592,82.919 67.670 C 83.050 67.882,81.742 71.018,81.583 70.874 C 81.508 70.806,81.496 70.837,81.557 70.944 C 81.771 71.318,79.713 74.593,77.966 76.658 C 75.616 79.436,71.013 82.683,68.500 83.334 C 68.179 83.417,67.279 83.681,66.500 83.921 C 65.721 84.160,64.683 84.383,64.193 84.415 C 63.704 84.448,63.260 84.518,63.207 84.570 C 63.154 84.623,62.308 84.667,61.327 84.667 C 51.833 84.667,42.710 77.831,39.594 68.383 C 38.469 64.973,36.617 63.735,34.249 64.811 C 31.894 65.881,31.627 68.182,33.358 72.496 C 33.861 73.750,34.036 74.115,34.959 75.833 C 39.308 83.935,48.028 90.290,56.602 91.606 C 58.544 91.904,64.667 92.039,64.667 91.784 C 64.667 91.706,64.873 91.663,65.125 91.690 C 65.377 91.716,65.658 91.694,65.750 91.641 C 65.842 91.588,66.142 91.539,66.417 91.532 C 66.692 91.525,67.592 91.317,68.417 91.070 C 69.242 90.822,70.254 90.524,70.667 90.408 C 71.401 90.200,74.594 88.711,75.917 87.959 C 77.907 86.828,80.639 84.658,82.500 82.731 C 83.279 81.924,83.978 81.281,84.054 81.303 C 84.130 81.324,84.147 81.269,84.092 81.181 C 84.037 81.092,84.205 80.772,84.463 80.468 C 85.062 79.767,86.493 77.737,86.850 77.083 C 87.901 75.160,89.203 72.578,89.253 72.320 C 89.285 72.150,89.578 71.346,89.904 70.533 C 90.229 69.720,90.529 68.798,90.571 68.485 C 90.613 68.173,90.798 67.279,90.983 66.500 C 92.042 62.040,92.051 56.225,91.004 51.879 C 90.822 51.125,90.722 50.382,90.782 50.227 C 90.855 50.037,90.827 49.984,90.695 50.066 C 90.565 50.146,90.500 50.042,90.500 49.757 C 90.500 49.522,90.236 48.673,89.913 47.873 C 89.590 47.072,89.295 46.248,89.257 46.041 C 89.219 45.835,88.924 45.167,88.600 44.558 C 88.276 43.948,88.058 43.374,88.115 43.282 C 88.173 43.188,88.135 43.167,88.026 43.234 C 87.915 43.302,87.833 43.253,87.833 43.119 C 87.833 42.990,87.547 42.442,87.197 41.901 C 86.847 41.360,86.538 40.842,86.509 40.750 C 86.319 40.140,83.182 36.203,81.940 35.015 C 81.614 34.703,81.393 34.365,81.450 34.265 C 81.507 34.165,81.493 34.138,81.420 34.204 C 81.231 34.374,79.975 33.342,80.108 33.126 C 80.169 33.029,80.141 32.996,80.046 33.055 C 79.951 33.114,79.583 32.930,79.228 32.647 C 75.638 29.783,69.956 27.259,66.042 26.790 C 65.194 26.689,64.500 26.563,64.499 26.511 C 64.498 26.401,60.029 26.340,59.167 26.438 M25.500 55.258 C 25.008 55.399,24.893 55.473,25.167 55.474 C 25.396 55.474,25.846 55.374,26.167 55.250 C 26.899 54.968,26.495 54.973,25.500 55.258 M22.961 55.621 C 23.261 55.658,23.711 55.657,23.961 55.619 C 24.212 55.581,23.967 55.551,23.417 55.552 C 22.867 55.553,22.662 55.584,22.961 55.621 M25.375 62.448 C 25.535 62.490,25.798 62.490,25.958 62.448 C 26.119 62.406,25.988 62.372,25.667 62.372 C 25.346 62.372,25.215 62.406,25.375 62.448 M23.461 62.621 C 23.761 62.658,24.211 62.657,24.461 62.619 C 24.712 62.581,24.467 62.551,23.917 62.552 C 23.367 62.553,23.162 62.584,23.461 62.621 M24.725 100.793 C 24.790 100.898,25.080 101.153,25.368 101.358 C 25.657 101.564,25.840 101.646,25.775 101.541 C 25.710 101.435,25.420 101.181,25.132 100.975 C 24.843 100.769,24.660 100.687,24.725 100.793 " stroke="none" fill="#21b0c4" fill-rule="evenodd"></path><path id="path1" d="M134.500 0.750 C 134.811 1.071,135.103 1.333,135.149 1.333 C 135.195 1.333,134.978 1.071,134.667 0.750 C 134.356 0.429,134.064 0.167,134.018 0.167 C 133.972 0.167,134.189 0.429,134.500 0.750 M64.042 3.782 C 64.202 3.823,64.465 3.823,64.625 3.782 C 64.785 3.740,64.654 3.705,64.333 3.705 C 64.012 3.705,63.881 3.740,64.042 3.782 M58.294 11.451 C 58.501 11.491,58.801 11.490,58.960 11.448 C 59.120 11.406,58.950 11.374,58.583 11.375 C 58.217 11.377,58.086 11.411,58.294 11.451 M60.547 26.289 C 60.985 26.324,61.660 26.323,62.047 26.288 C 62.434 26.254,62.075 26.225,61.250 26.226 C 60.425 26.226,60.109 26.255,60.547 26.289 M344.250 40.506 C 343.792 40.579,342.875 40.719,342.213 40.818 C 340.126 41.129,336.197 42.804,334.196 44.235 C 332.465 45.473,329.000 48.816,329.000 49.248 C 329.000 49.306,328.780 49.630,328.511 49.968 C 327.307 51.483,325.563 55.308,325.168 57.301 C 323.807 64.165,325.041 70.641,328.673 75.709 C 334.600 83.977,346.496 87.534,355.167 83.630 C 357.787 82.451,358.741 81.909,360.833 80.413 C 361.595 79.868,364.500 76.995,364.500 76.786 C 364.500 76.697,364.731 76.352,365.014 76.020 C 372.382 67.369,369.928 51.189,360.250 44.614 C 359.700 44.241,359.156 43.842,359.041 43.728 C 358.926 43.615,358.674 43.472,358.482 43.411 C 358.290 43.350,357.872 43.123,357.554 42.907 C 356.983 42.520,356.211 42.196,353.917 41.381 C 351.629 40.568,346.691 40.121,344.250 40.506 M150.739 41.132 C 147.652 42.853,147.065 46.526,149.476 49.040 C 150.541 50.150,151.275 50.333,154.651 50.333 L 157.333 50.333 157.333 65.504 C 157.333 82.628,157.274 81.817,158.624 83.217 C 160.442 85.101,164.855 85.098,165.714 83.212 C 165.809 83.004,165.944 82.833,166.015 82.833 C 166.085 82.833,166.335 82.425,166.571 81.927 L 167.000 81.021 167.000 65.677 L 167.000 50.333 169.689 50.333 C 173.243 50.333,174.169 50.049,175.318 48.603 C 177.269 46.148,176.432 42.599,173.550 41.109 C 172.722 40.681,151.510 40.703,150.739 41.132 M195.520 41.006 C 195.302 41.097,194.771 41.467,194.340 41.828 C 193.409 42.607,193.201 43.005,190.167 49.833 C 188.685 53.166,188.092 54.480,187.478 55.788 C 187.123 56.542,186.833 57.219,186.833 57.293 C 186.833 57.366,186.600 57.874,186.314 58.421 C 186.028 58.969,185.694 59.697,185.572 60.040 C 185.450 60.382,185.126 61.132,184.852 61.706 C 184.578 62.280,184.041 63.462,183.659 64.333 C 183.276 65.204,182.630 66.667,182.221 67.583 C 181.813 68.500,181.229 69.813,180.924 70.500 C 180.225 72.076,179.026 74.731,178.329 76.250 C 176.104 81.097,177.955 84.934,182.369 84.624 C 184.135 84.500,186.500 82.950,186.500 81.917 C 186.500 81.807,187.713 79.088,188.396 77.667 L 188.596 77.250 197.553 77.207 C 205.976 77.166,206.515 77.181,206.599 77.457 C 206.688 77.745,207.245 79.012,208.389 81.527 C 210.359 85.857,216.026 85.766,217.488 81.380 C 218.048 79.701,217.901 78.923,216.393 75.583 C 215.979 74.667,215.337 73.242,214.966 72.417 C 214.595 71.592,214.049 70.392,213.751 69.750 C 213.454 69.108,213.155 68.404,213.086 68.184 C 213.018 67.965,212.708 67.298,212.398 66.702 C 212.087 66.107,211.833 65.556,211.833 65.479 C 211.833 65.402,211.526 64.681,211.150 63.878 C 210.507 62.504,210.132 61.673,208.500 58.000 C 206.874 54.342,206.423 53.345,205.895 52.243 C 205.586 51.597,205.333 51.001,205.333 50.919 C 205.333 50.836,205.078 50.240,204.765 49.593 C 204.452 48.946,203.994 47.929,203.748 47.333 C 203.501 46.737,203.240 46.175,203.168 46.083 C 203.096 45.992,202.829 45.392,202.575 44.750 C 202.004 43.309,201.107 42.068,200.163 41.414 C 199.386 40.875,196.450 40.617,195.520 41.006 M227.872 41.105 C 227.025 41.529,226.012 42.608,225.571 43.555 L 225.170 44.417 225.172 62.750 C 225.174 83.293,225.074 81.577,226.366 83.208 C 227.975 85.240,231.743 85.287,233.600 83.299 C 234.797 82.018,234.833 81.760,234.833 74.594 L 234.833 68.167 238.042 68.157 C 245.475 68.135,250.652 64.563,252.523 58.167 C 252.875 56.962,252.813 51.483,252.434 50.417 C 250.907 46.110,248.267 43.288,244.167 41.577 L 242.583 40.917 235.500 40.874 C 229.218 40.837,228.355 40.863,227.872 41.105 M276.372 41.109 C 275.530 41.524,274.514 42.605,274.071 43.555 L 273.670 44.417 273.668 62.695 C 273.666 82.964,273.596 81.616,274.730 82.917 C 274.970 83.192,275.166 83.461,275.166 83.515 C 275.167 83.569,275.560 83.832,276.042 84.099 L 276.917 84.583 283.583 84.583 C 291.239 84.583,291.521 84.543,294.267 83.044 C 295.636 82.296,298.667 79.625,298.667 79.166 C 298.667 79.080,298.892 78.689,299.167 78.297 C 302.147 74.052,301.577 66.781,297.933 62.567 L 297.383 61.930 297.937 61.063 C 299.109 59.230,299.700 57.165,299.790 54.583 C 300.014 48.177,296.203 42.998,289.842 41.067 C 288.641 40.703,277.124 40.739,276.372 41.109 M311.021 41.013 C 310.307 41.299,309.365 42.162,308.803 43.047 L 308.250 43.917 308.205 62.479 L 308.161 81.041 308.564 81.921 C 310.266 85.638,315.645 85.635,317.365 81.917 L 317.750 81.083 317.797 63.083 L 317.844 45.083 317.478 43.938 C 316.680 41.443,313.522 40.012,311.021 41.013 M350.917 50.743 C 357.214 53.133,360.501 58.904,359.260 65.392 C 358.990 66.801,358.044 68.904,357.216 69.934 C 356.914 70.310,356.667 70.657,356.667 70.706 C 356.667 70.824,354.970 72.499,354.847 72.503 C 354.793 72.504,354.496 72.729,354.186 73.002 C 351.257 75.584,345.252 76.091,341.379 74.082 C 337.127 71.877,334.596 67.977,334.375 63.286 C 333.955 54.393,342.821 47.671,350.917 50.743 M240.911 50.921 C 243.299 52.129,243.867 54.834,242.180 56.961 C 241.255 58.127,240.510 58.359,237.375 58.459 L 234.833 58.541 234.833 54.417 L 234.833 50.293 237.387 50.361 C 239.816 50.427,239.987 50.454,240.911 50.921 M286.834 50.500 C 290.155 51.130,291.265 54.942,288.715 56.962 C 287.739 57.735,287.346 57.833,285.239 57.833 L 283.333 57.833 283.333 54.083 L 283.333 50.333 284.644 50.333 C 285.365 50.333,286.350 50.408,286.834 50.500 M11.794 54.118 C 12.001 54.158,12.301 54.156,12.460 54.115 C 12.620 54.073,12.450 54.040,12.083 54.042 C 11.717 54.044,11.586 54.078,11.794 54.118 M109.053 58.000 C 109.053 58.596,109.084 58.840,109.121 58.542 C 109.158 58.244,109.158 57.756,109.121 57.458 C 109.084 57.160,109.053 57.404,109.053 58.000 M198.125 58.629 C 198.423 59.249,198.667 59.814,198.667 59.883 C 198.667 59.953,198.922 60.527,199.235 61.159 C 199.547 61.791,199.858 62.483,199.925 62.696 C 199.992 62.909,200.291 63.608,200.588 64.250 C 201.346 65.886,202.000 67.362,202.000 67.437 C 202.000 67.472,200.004 67.500,197.565 67.500 L 193.131 67.500 193.244 67.050 C 193.306 66.802,193.640 65.996,193.986 65.258 C 194.332 64.520,194.919 63.242,195.291 62.417 C 195.662 61.592,196.274 60.240,196.650 59.414 C 197.026 58.588,197.333 57.819,197.333 57.706 C 197.333 57.238,197.615 57.566,198.125 58.629 M109.053 60.333 C 109.053 60.929,109.084 61.173,109.121 60.875 C 109.158 60.577,109.158 60.090,109.121 59.792 C 109.084 59.494,109.053 59.737,109.053 60.333 M289.081 67.978 C 292.205 69.375,292.085 73.405,288.880 74.771 C 288.505 74.931,287.590 75.000,285.839 75.000 L 283.333 75.000 283.333 71.229 L 283.333 67.459 285.792 67.532 C 287.874 67.594,288.377 67.663,289.081 67.978 M261.583 76.115 C 260.246 76.423,259.923 76.579,259.302 77.217 C 255.728 80.890,259.896 86.421,264.546 84.176 C 268.842 82.104,266.247 75.043,261.583 76.115 M40.160 83.208 C 40.568 83.644,40.925 84.000,40.951 84.000 C 41.077 84.000,40.944 83.850,40.208 83.160 L 39.417 82.417 40.160 83.208 M60.292 92.123 C 60.773 92.157,61.560 92.157,62.042 92.123 C 62.523 92.089,62.129 92.062,61.167 92.062 C 60.204 92.062,59.810 92.089,60.292 92.123 M58.042 106.948 C 58.202 106.990,58.465 106.990,58.625 106.948 C 58.785 106.906,58.654 106.872,58.333 106.872 C 58.012 106.872,57.881 106.906,58.042 106.948 M64.375 114.615 C 64.535 114.657,64.798 114.657,64.958 114.615 C 65.119 114.573,64.987 114.539,64.667 114.539 C 64.346 114.539,64.215 114.573,64.375 114.615 " stroke="none" fill="#fcfcfc" fill-rule="evenodd"></path><path id="path2" d="M130.699 0.574 C 130.333 0.904,129.914 1.428,129.767 1.737 C 129.357 2.602,129.357 115.731,129.767 116.596 C 130.069 117.231,131.305 118.422,131.473 118.240 C 131.534 118.175,131.500 118.091,131.399 118.055 C 130.608 117.770,130.663 122.122,130.666 59.357 C 130.668 3.922,130.654 1.135,130.376 1.233 C 130.054 1.345,130.799 0.629,131.289 0.355 C 131.450 0.265,131.532 0.143,131.472 0.083 C 131.412 0.023,131.064 0.244,130.699 0.574 M135.416 59.250 C 135.416 90.783,135.435 103.658,135.458 87.861 C 135.482 72.064,135.482 46.264,135.458 30.528 C 135.435 14.792,135.416 27.717,135.416 59.250 M60.542 3.788 C 60.885 3.824,61.448 3.824,61.792 3.788 C 62.135 3.752,61.854 3.723,61.167 3.723 C 60.479 3.723,60.198 3.752,60.542 3.788 M53.917 4.085 C 53.825 4.117,53.201 4.231,52.531 4.339 C 51.860 4.446,51.341 4.564,51.378 4.600 C 51.489 4.711,54.239 4.296,54.408 4.143 C 54.566 4.001,54.258 3.965,53.917 4.085 M68.000 4.162 C 68.137 4.253,68.506 4.329,68.819 4.331 C 69.567 4.334,69.434 4.240,68.500 4.104 C 67.976 4.028,67.825 4.045,68.000 4.162 M46.417 5.678 C 45.736 5.938,45.690 5.978,46.167 5.894 C 46.856 5.772,47.500 5.544,47.500 5.421 C 47.500 5.289,47.327 5.330,46.417 5.678 M74.833 5.500 C 75.063 5.573,75.400 5.636,75.583 5.638 L 75.917 5.643 75.583 5.500 C 75.400 5.421,75.063 5.359,74.833 5.362 L 74.417 5.367 74.833 5.500 M42.250 7.016 C 41.883 7.195,41.722 7.301,41.890 7.253 C 42.059 7.205,42.378 7.120,42.599 7.065 C 42.819 7.009,43.000 6.897,43.000 6.815 C 43.000 6.637,43.064 6.620,42.250 7.016 M79.250 6.833 C 79.433 6.912,79.696 6.977,79.833 6.977 C 79.991 6.977,79.960 6.924,79.750 6.833 C 79.567 6.755,79.304 6.690,79.167 6.690 C 79.009 6.690,79.040 6.743,79.250 6.833 M38.740 8.411 C 38.326 8.725,38.621 8.728,39.167 8.417 C 39.434 8.264,39.490 8.176,39.324 8.173 C 39.181 8.169,38.918 8.277,38.740 8.411 M36.083 9.667 C 35.525 10.036,35.598 10.100,36.242 9.807 C 36.476 9.700,36.667 9.550,36.667 9.473 C 36.667 9.284,36.655 9.288,36.083 9.667 M33.667 11.008 L 33.250 11.342 33.708 11.144 C 33.960 11.036,34.167 10.884,34.167 10.807 C 34.167 10.616,34.144 10.626,33.667 11.008 M55.875 11.375 C 55.027 11.463,54.333 11.610,54.333 11.702 C 54.333 11.797,54.512 11.825,54.746 11.766 C 54.973 11.709,55.629 11.616,56.204 11.559 C 56.779 11.502,57.362 11.393,57.500 11.316 C 57.637 11.239,57.675 11.185,57.583 11.196 C 57.492 11.206,56.723 11.287,55.875 11.375 M59.880 11.289 C 60.318 11.324,60.993 11.323,61.380 11.288 C 61.767 11.254,61.408 11.225,60.583 11.226 C 59.758 11.226,59.442 11.255,59.880 11.289 M62.375 11.282 C 62.535 11.323,62.798 11.323,62.958 11.282 C 63.119 11.240,62.987 11.205,62.667 11.205 C 62.346 11.205,62.215 11.240,62.375 11.282 M66.167 11.492 C 67.211 11.754,68.087 11.853,67.914 11.689 C 67.824 11.604,67.262 11.491,66.667 11.440 C 65.863 11.370,65.734 11.383,66.167 11.492 M31.747 12.040 C 31.657 12.123,31.358 12.379,31.083 12.607 L 30.583 13.023 31.094 12.744 C 31.877 12.316,32.399 11.889,32.140 11.889 C 32.014 11.889,31.837 11.957,31.747 12.040 M49.167 12.610 C 49.029 12.656,48.812 12.726,48.684 12.767 C 48.557 12.808,48.485 12.874,48.524 12.913 C 48.564 12.953,48.931 12.881,49.340 12.754 C 49.749 12.627,49.933 12.523,49.750 12.524 C 49.567 12.525,49.304 12.564,49.167 12.610 M29.384 13.765 L 28.917 14.197 29.458 13.837 C 29.955 13.508,30.116 13.333,29.926 13.333 C 29.885 13.333,29.641 13.528,29.384 13.765 M44.435 14.073 C 44.171 14.190,44.021 14.327,44.102 14.377 C 44.184 14.427,44.513 14.329,44.833 14.158 C 45.488 13.810,45.180 13.744,44.435 14.073 M27.333 15.232 C 26.554 15.815,25.729 16.507,25.500 16.770 C 25.181 17.136,25.163 17.189,25.425 16.999 C 25.654 16.832,25.636 16.875,25.371 17.127 C 25.154 17.335,24.916 17.468,24.843 17.423 C 24.771 17.378,24.410 17.658,24.043 18.046 C 23.676 18.433,23.177 18.886,22.934 19.052 C 22.692 19.218,22.531 19.416,22.578 19.491 C 22.663 19.628,22.174 20.129,22.050 20.033 C 22.015 20.005,21.765 20.168,21.495 20.395 C 21.189 20.653,21.082 20.835,21.211 20.881 C 21.331 20.924,21.208 21.082,20.917 21.258 C 20.462 21.534,19.851 22.188,18.157 24.209 C 17.224 25.324,16.129 26.842,14.731 28.960 C 14.020 30.036,13.396 30.954,13.344 31.000 C 13.293 31.046,13.227 31.196,13.198 31.333 C 13.170 31.471,12.981 31.846,12.780 32.167 C 12.033 33.356,9.758 38.205,9.592 38.960 C 9.521 39.284,9.401 39.458,9.294 39.392 C 9.196 39.332,9.163 39.359,9.221 39.452 C 9.279 39.546,9.103 40.235,8.830 40.983 C 8.557 41.731,8.333 42.566,8.333 42.838 C 8.333 43.110,8.269 43.333,8.190 43.333 C 8.111 43.333,8.082 43.521,8.126 43.750 C 8.170 43.979,8.141 44.167,8.061 44.167 C 7.982 44.167,7.917 45.292,7.917 46.667 C 7.917 48.042,7.964 49.167,8.022 49.167 C 8.081 49.167,8.180 49.598,8.243 50.125 C 8.581 52.959,10.815 54.558,13.286 53.734 C 14.227 53.421,15.276 52.474,15.423 51.807 C 15.480 51.546,15.577 51.333,15.638 51.333 C 15.700 51.333,15.750 50.846,15.750 50.250 C 15.750 49.654,15.686 49.167,15.607 49.167 C 15.529 49.167,15.507 49.057,15.558 48.922 C 15.610 48.787,15.583 48.635,15.498 48.582 C 15.108 48.341,15.432 44.299,15.943 43.036 C 16.213 42.369,16.490 41.879,16.559 41.948 C 16.628 42.017,16.639 41.954,16.583 41.808 C 16.527 41.662,16.597 41.427,16.739 41.285 C 16.881 41.143,16.932 41.002,16.853 40.972 C 16.774 40.941,17.246 39.829,17.901 38.500 C 19.194 35.878,19.264 35.749,20.217 34.218 C 20.571 33.650,20.877 33.088,20.897 32.968 C 20.918 32.848,21.183 32.490,21.486 32.171 C 22.020 31.610,22.420 30.894,22.356 30.613 C 22.339 30.537,22.390 30.515,22.469 30.564 C 22.657 30.681,23.378 29.707,23.253 29.505 C 23.201 29.420,23.494 29.103,23.906 28.800 C 24.317 28.498,24.657 28.127,24.660 27.977 C 24.664 27.827,24.798 27.561,24.958 27.386 C 25.119 27.211,25.178 27.184,25.090 27.325 C 25.002 27.467,25.168 27.366,25.459 27.099 C 25.750 26.833,25.954 26.561,25.913 26.494 C 25.871 26.427,26.118 26.077,26.460 25.717 C 26.803 25.357,26.939 25.235,26.763 25.447 C 26.587 25.659,26.485 25.874,26.536 25.925 C 26.587 25.976,26.785 25.819,26.976 25.576 C 27.310 25.152,27.323 24.947,27.323 20.300 L 27.322 15.466 28.078 14.877 C 28.738 14.363,28.943 14.160,28.792 14.169 C 28.769 14.171,28.113 14.649,27.333 15.232 M41.417 15.345 C 41.050 15.522,40.938 15.619,41.167 15.562 C 41.639 15.445,42.505 15.010,42.250 15.019 C 42.158 15.022,41.783 15.169,41.417 15.345 M27.075 15.794 C 26.988 15.864,26.692 16.108,26.417 16.335 L 25.917 16.749 26.406 16.208 C 26.675 15.910,26.972 15.667,27.065 15.667 C 27.169 15.667,27.173 15.715,27.075 15.794 M38.792 16.595 C 38.145 16.946,38.219 17.067,38.875 16.733 C 39.503 16.414,39.614 16.331,39.403 16.340 C 39.319 16.344,39.044 16.459,38.792 16.595 M97.348 17.208 C 97.387 17.231,97.680 17.475,98.001 17.750 L 98.583 18.250 98.094 17.708 C 97.825 17.410,97.531 17.167,97.441 17.167 C 97.351 17.167,97.309 17.185,97.348 17.208 M36.708 17.761 C 36.319 17.995,36.000 18.219,36.000 18.259 C 36.000 18.385,36.379 18.261,36.655 18.045 C 36.799 17.932,37.067 17.728,37.250 17.592 C 37.770 17.205,37.489 17.293,36.708 17.761 M98.847 18.542 C 98.885 18.565,99.142 18.771,99.417 19.000 L 99.917 19.417 99.513 18.958 C 99.290 18.706,99.034 18.500,98.943 18.500 C 98.852 18.500,98.809 18.519,98.847 18.542 M34.701 19.024 C 34.400 19.217,34.189 19.411,34.233 19.456 C 34.315 19.537,35.333 18.873,35.333 18.739 C 35.333 18.627,35.288 18.648,34.701 19.024 M100.938 20.577 C 101.280 20.986,101.657 21.358,101.776 21.403 C 101.894 21.449,101.640 21.114,101.211 20.660 C 100.242 19.633,100.118 19.595,100.938 20.577 M32.441 20.591 C 31.406 21.381,31.450 21.488,32.500 20.734 C 33.247 20.198,33.455 20.000,33.274 20.000 C 33.241 20.000,32.866 20.266,32.441 20.591 M91.071 21.791 C 91.340 22.087,91.596 22.293,91.641 22.248 C 91.686 22.203,91.691 22.148,91.653 22.125 C 91.615 22.102,91.358 21.896,91.083 21.667 L 90.583 21.251 91.071 21.791 M29.920 22.625 C 29.206 23.244,28.445 23.888,28.228 24.056 C 28.011 24.224,27.833 24.434,27.833 24.523 C 27.833 24.612,28.565 24.031,29.458 23.233 C 30.352 22.434,31.155 21.718,31.242 21.641 C 31.329 21.563,31.359 21.500,31.309 21.500 C 31.259 21.500,30.634 22.006,29.920 22.625 M96.146 26.474 C 96.426 26.827,96.786 27.221,96.947 27.349 C 97.109 27.478,96.912 27.190,96.511 26.708 C 95.669 25.699,95.391 25.520,96.146 26.474 M56.583 26.591 L 55.583 26.812 56.667 26.722 C 57.262 26.673,57.821 26.566,57.908 26.483 C 58.112 26.290,57.843 26.312,56.583 26.591 M64.500 26.530 C 64.500 26.605,64.706 26.667,64.958 26.669 C 65.210 26.670,65.717 26.706,66.083 26.749 L 66.750 26.828 66.167 26.665 C 65.351 26.437,64.500 26.368,64.500 26.530 M51.250 28.000 C 51.040 28.090,51.009 28.143,51.167 28.143 C 51.304 28.143,51.567 28.079,51.750 28.000 C 51.960 27.910,51.991 27.857,51.833 27.857 C 51.696 27.857,51.433 27.921,51.250 28.000 M97.500 27.941 C 97.500 28.031,97.744 28.325,98.042 28.594 L 98.583 29.083 98.083 28.501 C 97.808 28.180,97.565 27.887,97.542 27.848 C 97.519 27.809,97.500 27.851,97.500 27.941 M73.333 29.056 C 73.333 29.099,73.575 29.218,73.871 29.322 C 74.167 29.425,74.336 29.440,74.246 29.357 C 74.056 29.179,73.333 28.941,73.333 29.056 M48.000 29.417 C 47.771 29.548,47.658 29.655,47.750 29.655 C 47.842 29.655,48.104 29.548,48.333 29.417 C 48.563 29.286,48.675 29.178,48.583 29.178 C 48.492 29.178,48.229 29.286,48.000 29.417 M45.622 30.756 C 44.770 31.335,44.835 31.440,45.708 30.896 C 46.558 30.367,46.600 30.333,46.400 30.333 C 46.314 30.333,45.964 30.524,45.622 30.756 M108.678 30.417 C 108.678 30.508,108.786 30.771,108.917 31.000 C 109.048 31.229,109.155 31.342,109.155 31.250 C 109.155 31.158,109.048 30.896,108.917 30.667 C 108.786 30.438,108.678 30.325,108.678 30.417 M43.750 32.098 L 43.250 32.528 43.792 32.169 C 44.090 31.972,44.333 31.778,44.333 31.739 C 44.333 31.614,44.263 31.657,43.750 32.098 M40.602 34.833 C 39.365 36.025,38.395 37.000,38.447 37.000 C 38.499 37.000,38.443 37.131,38.324 37.292 C 38.205 37.452,38.574 37.081,39.143 36.466 C 39.713 35.852,40.830 34.746,41.626 34.008 C 42.421 33.270,43.023 32.667,42.962 32.667 C 42.901 32.667,41.839 33.642,40.602 34.833 M58.750 33.778 C 58.383 33.821,58.016 33.921,57.934 34.002 C 57.848 34.086,58.132 34.099,58.601 34.033 C 59.671 33.881,63.258 33.892,63.995 34.049 C 64.421 34.140,64.524 34.124,64.386 33.986 C 64.191 33.791,59.974 33.635,58.750 33.778 M53.625 35.027 C 53.373 35.119,53.167 35.265,53.167 35.352 C 53.167 35.438,53.373 35.404,53.625 35.277 C 53.877 35.150,54.196 35.004,54.333 34.953 C 54.556 34.870,54.556 34.860,54.333 34.860 C 54.196 34.860,53.877 34.935,53.625 35.027 M50.667 36.413 C 50.294 36.622,50.287 36.644,50.596 36.623 C 50.786 36.611,51.033 36.503,51.144 36.383 C 51.406 36.103,51.194 36.116,50.667 36.413 M48.477 37.843 C 48.104 38.167,48.103 38.176,48.449 38.009 C 48.650 37.911,48.861 37.757,48.917 37.666 C 49.081 37.401,48.901 37.473,48.477 37.843 M37.302 38.500 C 37.061 38.775,36.927 39.000,37.004 39.000 C 37.081 39.000,37.304 38.775,37.500 38.500 C 37.696 38.225,37.830 38.000,37.798 38.000 C 37.767 38.000,37.543 38.225,37.302 38.500 M46.083 39.859 C 45.205 40.699,44.250 41.692,43.960 42.068 C 43.671 42.443,43.936 42.225,44.549 41.583 C 45.163 40.942,46.165 39.948,46.775 39.375 C 47.386 38.802,47.839 38.333,47.783 38.333 C 47.726 38.333,46.961 39.020,46.083 39.859 M76.013 39.784 C 76.558 40.392,76.685 40.516,77.258 40.996 C 77.528 41.223,77.302 40.942,76.755 40.371 C 75.765 39.338,75.243 38.925,76.013 39.784 M36.026 40.333 C 35.823 40.608,35.718 40.833,35.792 40.833 C 35.867 40.833,36.061 40.608,36.223 40.333 C 36.386 40.058,36.491 39.833,36.457 39.833 C 36.424 39.833,36.230 40.058,36.026 40.333 M34.602 42.745 C 34.450 42.977,34.384 43.167,34.456 43.167 C 34.618 43.167,35.050 42.494,34.951 42.395 C 34.911 42.355,34.754 42.513,34.602 42.745 M43.046 43.208 C 42.721 43.630,42.609 43.888,42.807 43.766 C 43.004 43.644,43.399 43.000,43.276 43.000 C 43.238 43.000,43.135 43.094,43.046 43.208 M33.936 44.136 C 33.731 44.467,33.142 46.197,33.210 46.266 C 33.252 46.307,33.474 45.815,33.703 45.171 C 34.085 44.101,34.157 43.777,33.936 44.136 M41.593 45.426 C 41.435 45.666,41.340 45.896,41.381 45.936 C 41.422 45.977,41.583 45.814,41.741 45.574 C 41.898 45.334,41.993 45.104,41.953 45.064 C 41.912 45.023,41.750 45.186,41.593 45.426 M40.167 48.500 C 40.050 48.781,39.994 49.050,40.042 49.097 C 40.089 49.145,40.212 48.943,40.315 48.648 C 40.557 47.953,40.441 47.837,40.167 48.500 M32.111 49.345 C 31.945 49.814,31.844 50.233,31.887 50.276 C 31.999 50.388,32.548 48.894,32.475 48.675 C 32.442 48.575,32.278 48.876,32.111 49.345 M30.868 51.744 C 30.690 51.970,30.509 52.120,30.467 52.078 C 30.424 52.035,30.389 52.113,30.389 52.251 C 30.389 52.547,30.916 52.136,31.188 51.627 C 31.415 51.203,31.244 51.266,30.868 51.744 M38.782 52.615 C 38.625 53.039,38.527 53.416,38.564 53.453 C 38.601 53.490,38.763 53.177,38.923 52.756 C 39.084 52.336,39.182 51.959,39.141 51.919 C 39.101 51.878,38.939 52.192,38.782 52.615 M27.443 54.467 C 26.888 54.723,26.530 54.981,26.610 55.066 C 26.691 55.153,26.593 55.177,26.375 55.123 C 26.136 55.065,26.039 55.095,26.108 55.207 C 26.180 55.323,26.054 55.344,25.733 55.269 C 25.368 55.184,25.311 55.200,25.500 55.333 C 25.735 55.500,23.955 55.423,23.375 55.242 C 23.260 55.206,23.167 55.245,23.167 55.329 C 23.167 55.412,23.410 55.513,23.708 55.553 C 24.006 55.594,23.613 55.598,22.833 55.564 C 21.866 55.520,21.496 55.552,21.667 55.664 C 21.804 55.754,21.838 55.829,21.742 55.831 C 21.645 55.832,21.494 55.761,21.406 55.672 C 20.626 54.893,15.121 57.694,12.724 60.090 C 6.816 65.993,6.386 73.791,11.428 83.547 C 11.750 84.169,11.961 84.762,11.897 84.865 C 11.827 84.978,11.857 85.005,11.974 84.933 C 12.080 84.867,12.167 84.907,12.167 85.022 C 12.167 85.627,16.333 91.991,17.999 93.930 C 18.320 94.305,19.062 95.184,19.648 95.885 C 20.233 96.585,20.769 97.123,20.837 97.081 C 20.906 97.038,21.064 97.130,21.189 97.284 C 21.385 97.525,21.382 97.544,21.167 97.424 C 21.029 97.346,21.172 97.554,21.485 97.885 C 21.797 98.216,22.107 98.453,22.174 98.412 C 22.241 98.371,22.388 98.449,22.502 98.585 C 22.615 98.722,22.648 98.833,22.575 98.833 C 22.502 98.833,22.618 99.021,22.833 99.250 C 23.049 99.479,23.305 99.667,23.404 99.667 C 23.503 99.668,23.876 100.024,24.235 100.459 C 24.593 100.894,24.837 101.114,24.777 100.948 C 24.656 100.610,25.528 101.135,25.777 101.549 C 25.850 101.671,25.786 101.660,25.615 101.521 C 25.460 101.395,25.333 101.333,25.333 101.382 C 25.333 101.585,28.464 104.034,29.717 104.810 C 30.303 105.174,29.416 104.429,28.282 103.606 L 27.313 102.903 27.328 98.241 L 27.343 93.579 26.585 92.835 C 26.168 92.426,25.860 92.004,25.900 91.899 C 25.941 91.793,25.700 91.454,25.366 91.145 C 24.974 90.784,24.875 90.732,25.087 91.000 L 25.417 91.417 25.042 91.099 C 24.835 90.925,24.667 90.648,24.667 90.485 C 24.667 90.322,24.330 89.913,23.918 89.576 C 23.507 89.239,23.210 88.898,23.259 88.818 C 23.393 88.602,22.642 87.663,22.432 87.783 C 22.332 87.840,22.304 87.827,22.369 87.755 C 22.532 87.575,22.189 86.966,21.994 87.087 C 21.908 87.140,21.878 87.077,21.928 86.947 C 21.979 86.814,21.765 86.441,21.438 86.094 C 21.118 85.755,20.856 85.464,20.856 85.447 C 20.851 85.279,20.549 84.658,20.289 84.283 C 19.543 83.207,16.972 78.139,16.953 77.708 C 16.948 77.594,16.882 77.500,16.806 77.500 C 16.729 77.500,16.667 77.398,16.667 77.273 C 16.667 77.148,16.440 76.495,16.162 75.822 C 15.884 75.149,15.696 74.497,15.743 74.374 C 15.796 74.236,15.756 74.195,15.639 74.267 C 15.509 74.348,15.478 74.270,15.541 74.026 C 15.593 73.828,15.576 73.667,15.504 73.667 C 15.432 73.667,15.371 72.804,15.369 71.750 C 15.367 70.696,15.431 69.833,15.511 69.833 C 15.591 69.833,15.613 69.721,15.560 69.583 C 15.508 69.446,15.529 69.333,15.607 69.333 C 15.686 69.333,15.761 69.149,15.774 68.923 C 15.853 67.551,18.057 64.860,19.884 63.905 C 20.544 63.560,21.107 63.220,21.136 63.149 C 21.165 63.077,21.296 63.060,21.427 63.111 C 21.559 63.161,21.667 63.126,21.667 63.033 C 21.667 62.941,21.828 62.907,22.026 62.959 C 22.294 63.029,22.351 62.997,22.250 62.833 C 22.151 62.673,22.200 62.638,22.432 62.703 C 23.014 62.867,23.079 62.873,23.750 62.828 L 24.417 62.783 23.667 62.667 L 22.917 62.550 23.861 62.525 C 24.456 62.509,24.830 62.572,24.871 62.696 C 24.938 62.896,27.435 62.495,28.227 62.156 C 28.610 61.992,28.441 62.002,26.917 62.230 C 26.272 62.326,26.268 62.324,26.792 62.160 L 27.333 61.990 27.333 58.495 C 27.333 55.814,27.285 54.998,27.125 54.992 C 27.010 54.988,27.273 54.799,27.708 54.572 C 28.144 54.346,28.500 54.124,28.500 54.080 C 28.500 53.973,28.548 53.956,27.443 54.467 M37.263 55.452 C 36.923 55.976,36.785 56.278,36.956 56.123 C 37.263 55.845,38.088 54.500,37.951 54.500 C 37.913 54.500,37.603 54.929,37.263 55.452 M36.109 56.971 C 35.805 57.307,35.738 57.578,35.999 57.417 C 36.173 57.310,36.558 56.667,36.448 56.667 C 36.414 56.667,36.261 56.804,36.109 56.971 M34.597 58.519 C 34.351 58.713,34.186 58.908,34.230 58.953 C 34.275 58.997,34.522 58.839,34.779 58.600 C 35.341 58.079,35.223 58.026,34.597 58.519 M33.089 59.686 C 32.214 60.344,32.132 60.453,32.803 60.068 C 33.276 59.796,34.020 59.144,33.817 59.178 C 33.780 59.184,33.453 59.413,33.089 59.686 M91.705 60.333 C 91.705 60.654,91.740 60.785,91.782 60.625 C 91.823 60.465,91.823 60.202,91.782 60.042 C 91.740 59.881,91.705 60.012,91.705 60.333 M30.500 61.167 C 30.179 61.342,30.029 61.489,30.167 61.492 C 30.304 61.495,30.642 61.349,30.917 61.167 C 31.552 60.746,31.269 60.746,30.500 61.167 M25.958 62.448 C 25.798 62.490,25.535 62.490,25.375 62.448 C 25.215 62.406,25.346 62.372,25.667 62.372 C 25.988 62.372,26.119 62.406,25.958 62.448 M33.361 65.292 C 33.013 65.640,32.960 65.723,33.243 65.480 C 33.522 65.240,33.900 64.961,34.083 64.860 C 34.267 64.759,34.320 64.675,34.202 64.672 C 34.084 64.669,33.705 64.948,33.361 65.292 M37.417 64.944 C 38.131 65.320,38.609 65.793,38.840 66.350 C 38.950 66.616,39.115 66.833,39.206 66.833 C 39.297 66.833,39.249 66.646,39.099 66.417 C 38.949 66.188,38.873 66.000,38.931 66.000 C 38.989 66.000,38.673 65.700,38.230 65.333 C 37.786 64.967,37.309 64.670,37.170 64.673 C 37.031 64.677,37.142 64.799,37.417 64.944 M32.242 66.681 C 31.905 67.335,31.905 68.720,32.243 69.583 C 32.449 70.108,32.484 70.144,32.410 69.750 C 32.157 68.403,32.149 67.547,32.382 66.875 C 32.672 66.040,32.615 65.961,32.242 66.681 M40.097 69.833 C 40.257 70.438,40.490 70.834,40.489 70.500 C 40.489 70.362,40.375 70.063,40.237 69.833 L 39.986 69.417 40.097 69.833 M33.175 72.333 C 33.176 72.641,33.801 73.992,33.820 73.727 C 33.827 73.622,33.685 73.209,33.504 72.810 C 33.322 72.410,33.174 72.196,33.175 72.333 M41.583 72.833 C 41.726 73.108,41.879 73.333,41.925 73.333 C 41.971 73.333,41.892 73.108,41.750 72.833 C 41.608 72.558,41.454 72.333,41.408 72.333 C 41.362 72.333,41.441 72.558,41.583 72.833 M42.810 74.716 C 43.100 75.138,43.426 75.537,43.533 75.604 C 43.641 75.671,43.473 75.368,43.160 74.932 C 42.419 73.900,42.123 73.717,42.810 74.716 M34.282 74.958 C 34.243 75.027,34.426 75.376,34.689 75.733 C 34.952 76.090,35.167 76.327,35.167 76.259 C 35.167 76.037,34.599 75.167,34.454 75.167 C 34.377 75.167,34.360 75.092,34.417 75.000 C 34.473 74.908,34.482 74.833,34.436 74.833 C 34.391 74.833,34.321 74.890,34.282 74.958 M44.167 76.430 C 44.396 76.698,44.602 76.948,44.625 76.986 C 44.648 77.024,44.664 76.949,44.661 76.819 C 44.659 76.690,44.452 76.439,44.203 76.263 L 43.750 75.943 44.167 76.430 M35.859 77.676 C 36.068 78.048,36.345 78.441,36.475 78.549 C 36.605 78.657,36.470 78.352,36.175 77.872 C 35.542 76.844,35.310 76.700,35.859 77.676 M76.482 78.042 C 76.286 78.415,76.287 78.415,76.642 78.099 C 77.040 77.746,77.076 77.667,76.839 77.667 C 76.751 77.667,76.590 77.835,76.482 78.042 M37.057 79.414 C 37.163 79.641,37.348 79.866,37.469 79.912 C 37.591 79.960,37.531 79.778,37.332 79.499 C 36.900 78.892,36.800 78.861,37.057 79.414 M85.107 79.708 L 84.809 80.250 85.155 79.857 C 85.453 79.517,85.604 79.167,85.453 79.167 C 85.427 79.167,85.271 79.410,85.107 79.708 M73.750 80.431 L 73.250 80.861 73.792 80.502 C 74.090 80.305,74.333 80.112,74.333 80.072 C 74.333 79.947,74.263 79.991,73.750 80.431 M38.151 80.702 C 38.280 80.866,38.337 81.000,38.279 81.000 C 38.220 81.000,39.128 81.962,40.295 83.137 C 41.462 84.313,42.448 85.250,42.486 85.220 C 42.525 85.190,42.675 85.260,42.821 85.375 C 42.966 85.489,42.597 85.135,42.001 84.586 C 40.636 83.331,40.156 82.851,38.914 81.493 C 38.366 80.894,38.022 80.538,38.151 80.702 M48.500 80.385 C 48.500 80.424,48.819 80.666,49.208 80.923 C 49.598 81.180,49.829 81.284,49.721 81.153 C 49.514 80.903,48.500 80.265,48.500 80.385 M53.667 83.250 C 54.428 83.543,54.727 83.539,54.083 83.244 C 53.808 83.118,53.471 83.017,53.333 83.020 C 53.196 83.023,53.346 83.126,53.667 83.250 M57.950 84.350 C 58.191 84.591,63.072 84.789,63.211 84.564 C 63.261 84.482,62.402 84.417,61.276 84.417 C 60.162 84.417,58.913 84.357,58.500 84.283 C 57.915 84.179,57.794 84.194,57.950 84.350 M63.833 84.333 C 63.435 84.461,63.441 84.468,63.948 84.483 C 64.241 84.493,64.527 84.425,64.583 84.333 C 64.702 84.142,64.432 84.142,63.833 84.333 M78.357 86.339 C 78.140 86.519,78.041 86.667,78.136 86.667 C 78.305 86.667,78.833 86.215,78.833 86.071 C 78.833 85.958,78.774 85.991,78.357 86.339 M45.333 87.226 C 45.333 87.354,46.510 88.046,46.590 87.965 C 46.630 87.925,46.364 87.724,45.998 87.519 C 45.632 87.313,45.333 87.182,45.333 87.226 M47.847 88.717 C 48.322 89.062,48.833 89.311,48.833 89.197 C 48.833 89.118,48.642 88.966,48.409 88.860 C 48.020 88.683,47.681 88.597,47.847 88.717 M73.917 89.000 C 73.550 89.170,73.347 89.314,73.467 89.321 C 73.704 89.335,74.667 88.873,74.667 88.746 C 74.667 88.647,74.711 88.632,73.917 89.000 M97.939 89.773 C 97.698 90.014,97.500 90.289,97.500 90.384 C 97.500 90.478,97.519 90.524,97.542 90.485 C 97.565 90.447,97.804 90.172,98.073 89.874 C 98.659 89.226,98.561 89.151,97.939 89.773 M51.333 90.333 C 51.471 90.422,51.696 90.495,51.833 90.495 C 52.056 90.495,52.056 90.477,51.833 90.333 C 51.696 90.244,51.471 90.172,51.333 90.172 C 51.111 90.172,51.111 90.190,51.333 90.333 M70.250 90.500 C 70.040 90.590,70.009 90.643,70.167 90.643 C 70.304 90.643,70.567 90.579,70.750 90.500 C 70.960 90.410,70.991 90.357,70.833 90.357 C 70.696 90.357,70.433 90.421,70.250 90.500 M56.750 91.751 C 57.960 92.035,58.119 92.048,57.908 91.852 C 57.821 91.771,57.300 91.662,56.750 91.611 L 55.750 91.517 56.750 91.751 M64.667 91.833 C 64.667 92.029,64.795 92.029,65.250 91.833 C 65.545 91.706,65.531 91.689,65.125 91.678 C 64.873 91.672,64.667 91.742,64.667 91.833 M26.909 92.980 C 27.669 93.772,27.611 93.736,27.611 93.424 C 27.611 93.291,27.552 93.218,27.481 93.262 C 27.409 93.306,27.270 93.192,27.171 93.008 C 27.073 92.825,26.825 92.588,26.621 92.483 C 26.376 92.358,26.474 92.526,26.909 92.980 M27.917 93.959 C 28.375 94.417,30.330 96.097,30.917 96.536 C 31.519 96.987,31.535 96.991,31.083 96.579 C 29.196 94.860,28.096 93.908,27.936 93.854 C 27.812 93.812,27.806 93.847,27.917 93.959 M32.241 97.553 C 32.948 98.206,33.549 98.511,32.917 97.896 C 32.642 97.629,32.385 97.430,32.347 97.455 C 32.308 97.480,32.154 97.407,32.004 97.292 C 31.854 97.177,31.961 97.295,32.241 97.553 M34.417 99.101 C 35.022 99.567,35.427 99.705,34.917 99.271 C 34.642 99.037,34.342 98.845,34.250 98.845 C 34.158 98.844,34.233 98.960,34.417 99.101 M99.282 99.422 C 99.025 99.648,98.881 99.833,98.962 99.833 C 99.042 99.833,99.285 99.646,99.500 99.417 C 99.998 98.886,99.888 98.889,99.282 99.422 M36.250 100.248 C 36.622 100.558,37.678 101.129,37.417 100.879 C 37.325 100.792,36.950 100.552,36.583 100.346 C 36.217 100.140,36.067 100.096,36.250 100.248 M97.573 100.964 C 97.017 101.488,96.716 101.804,96.903 101.667 C 97.360 101.332,98.772 100.003,98.667 100.008 C 98.621 100.009,98.129 100.440,97.573 100.964 M38.500 101.479 C 38.500 101.545,38.837 101.764,39.250 101.965 C 39.662 102.165,40.000 102.299,40.000 102.262 C 40.000 102.225,39.662 102.007,39.250 101.776 C 38.837 101.545,38.500 101.412,38.500 101.479 M27.052 102.658 C 27.018 102.699,26.748 102.480,26.453 102.170 L 25.917 101.608 26.516 102.095 C 26.845 102.364,27.087 102.617,27.052 102.658 M41.167 102.820 C 41.167 102.966,42.171 103.384,42.275 103.281 C 42.305 103.251,42.068 103.102,41.748 102.949 C 41.428 102.797,41.167 102.739,41.167 102.820 M44.477 104.257 C 44.786 104.390,45.123 104.494,45.227 104.486 C 45.490 104.468,44.475 104.015,44.167 104.014 C 44.029 104.013,44.169 104.123,44.477 104.257 M48.085 105.330 C 48.010 105.452,49.644 105.912,49.755 105.800 C 49.793 105.763,49.448 105.616,48.989 105.475 C 48.530 105.335,48.123 105.269,48.085 105.330 M73.500 105.442 L 72.917 105.678 73.495 105.586 C 73.813 105.535,74.147 105.420,74.236 105.330 C 74.452 105.114,74.226 105.149,73.500 105.442 M30.785 105.525 C 30.998 105.781,32.333 106.572,32.333 106.442 C 32.333 106.398,31.941 106.120,31.461 105.825 C 30.981 105.530,30.677 105.395,30.785 105.525 M54.234 106.640 C 54.286 106.725,54.836 106.843,55.456 106.902 C 56.076 106.962,56.883 107.054,57.250 107.108 C 57.617 107.161,57.872 107.158,57.818 107.101 C 57.764 107.044,57.089 106.922,56.318 106.830 C 55.547 106.739,54.742 106.624,54.528 106.575 C 54.311 106.526,54.181 106.555,54.234 106.640 M67.417 106.667 C 67.119 106.795,67.131 106.811,67.532 106.822 C 67.779 106.828,68.027 106.758,68.083 106.667 C 68.206 106.468,67.880 106.468,67.417 106.667 M66.250 106.833 C 65.789 106.951,65.782 106.962,66.167 106.978 C 66.396 106.987,66.696 106.922,66.833 106.833 C 67.117 106.650,66.970 106.650,66.250 106.833 M33.000 106.900 C 33.000 107.040,34.185 107.704,34.275 107.614 C 34.325 107.564,34.058 107.366,33.683 107.175 C 33.307 106.983,33.000 106.859,33.000 106.900 M58.958 107.118 C 59.165 107.157,59.502 107.157,59.708 107.118 C 59.915 107.078,59.746 107.045,59.333 107.045 C 58.921 107.045,58.752 107.078,58.958 107.118 M62.627 107.118 C 62.834 107.158,63.134 107.156,63.294 107.115 C 63.453 107.073,63.283 107.040,62.917 107.042 C 62.550 107.044,62.420 107.078,62.627 107.118 M35.926 108.578 C 36.104 108.713,36.362 108.822,36.500 108.822 C 36.645 108.822,36.575 108.721,36.333 108.583 C 35.786 108.270,35.515 108.267,35.926 108.578 M38.000 109.536 C 38.213 109.765,39.500 110.323,39.500 110.186 C 39.500 110.102,39.294 109.958,39.042 109.867 C 38.790 109.775,38.433 109.644,38.250 109.574 C 38.067 109.504,37.954 109.487,38.000 109.536 M42.000 111.250 C 42.229 111.381,42.567 111.485,42.750 111.481 C 42.968 111.477,42.882 111.397,42.500 111.250 C 41.729 110.953,41.481 110.953,42.000 111.250 M45.667 112.443 C 46.898 112.854,47.333 112.962,47.333 112.858 C 47.333 112.730,45.976 112.324,45.623 112.346 C 45.505 112.354,45.524 112.396,45.667 112.443 M52.667 114.002 C 54.085 114.291,54.596 114.348,54.333 114.189 C 54.196 114.105,53.596 113.995,53.000 113.943 C 52.053 113.861,52.011 113.868,52.667 114.002 M68.083 114.175 C 67.859 114.277,68.022 114.294,68.583 114.225 C 69.042 114.170,69.448 114.096,69.486 114.062 C 69.632 113.932,68.400 114.031,68.083 114.175 M60.292 114.623 C 60.773 114.657,61.560 114.657,62.042 114.623 C 62.523 114.589,62.129 114.562,61.167 114.562 C 60.204 114.562,59.810 114.589,60.292 114.623 " stroke="none" fill="#63c7da" fill-rule="evenodd"></path><path id="path3" d="M129.416 59.250 C 129.416 90.417,129.435 103.192,129.458 87.639 C 129.482 72.086,129.482 46.586,129.458 30.972 C 129.435 15.358,129.416 28.083,129.416 59.250 M58.877 3.786 C 59.131 3.825,59.506 3.824,59.711 3.784 C 59.916 3.744,59.708 3.713,59.250 3.714 C 58.792 3.716,58.624 3.748,58.877 3.786 M62.711 3.786 C 62.964 3.825,63.339 3.824,63.544 3.784 C 63.749 3.744,63.542 3.713,63.083 3.714 C 62.625 3.716,62.457 3.748,62.711 3.786 M24.583 17.377 C 22.860 18.909,22.035 19.726,23.083 18.862 C 24.181 17.958,25.939 16.347,25.833 16.343 C 25.787 16.341,25.225 16.807,24.583 17.377 M21.573 20.208 L 21.083 20.750 21.625 20.260 C 21.923 19.991,22.167 19.748,22.167 19.719 C 22.167 19.590,22.029 19.703,21.573 20.208 M32.333 20.842 L 31.917 21.176 32.375 20.978 C 32.627 20.869,32.833 20.717,32.833 20.640 C 32.833 20.450,32.810 20.459,32.333 20.842 M20.655 21.209 C 20.419 21.415,20.120 21.733,19.990 21.917 C 19.860 22.100,20.072 21.950,20.460 21.583 C 20.849 21.217,21.166 20.898,21.167 20.875 C 21.167 20.784,21.066 20.850,20.655 21.209 M31.000 21.858 C 30.679 22.140,30.568 22.294,30.752 22.200 C 31.056 22.046,31.811 21.324,31.651 21.340 C 31.614 21.344,31.321 21.577,31.000 21.858 M18.165 24.042 C 17.676 24.663,17.665 24.699,18.069 24.333 C 18.490 23.954,18.933 23.333,18.784 23.333 C 18.750 23.333,18.472 23.652,18.165 24.042 M27.917 24.586 C 27.458 24.993,27.137 25.328,27.203 25.330 C 27.270 25.332,27.682 24.997,28.120 24.586 C 29.147 23.623,29.002 23.623,27.917 24.586 M94.833 25.219 C 94.833 25.248,95.077 25.491,95.375 25.760 L 95.917 26.250 95.427 25.708 C 94.971 25.203,94.833 25.090,94.833 25.219 M25.753 26.792 C 25.395 27.227,25.275 27.433,25.486 27.250 C 25.859 26.926,26.583 26.000,26.463 26.000 C 26.431 26.000,26.111 26.356,25.753 26.792 M16.082 26.668 C 15.916 26.852,15.819 27.041,15.867 27.090 C 15.915 27.138,16.079 26.987,16.231 26.755 C 16.563 26.248,16.497 26.209,16.082 26.668 M58.208 26.448 C 58.369 26.490,58.631 26.490,58.792 26.448 C 58.952 26.406,58.821 26.372,58.500 26.372 C 58.179 26.372,58.048 26.406,58.208 26.448 M14.827 28.510 C 14.627 28.790,14.500 29.056,14.544 29.100 C 14.589 29.145,14.782 28.915,14.974 28.590 C 15.402 27.865,15.318 27.819,14.827 28.510 M23.196 29.829 C 22.981 30.120,22.924 30.288,23.059 30.236 C 23.251 30.162,23.758 29.333,23.611 29.333 C 23.584 29.333,23.398 29.556,23.196 29.829 M40.245 35.042 L 39.250 36.083 40.292 35.089 C 40.865 34.541,41.333 34.073,41.333 34.047 C 41.333 33.924,41.169 34.074,40.245 35.042 M81.994 35.048 C 82.495 35.572,82.924 36.000,82.947 36.000 C 83.122 36.000,82.654 35.462,81.939 34.840 L 81.083 34.096 81.994 35.048 M10.622 35.934 C 10.555 36.001,10.502 36.212,10.505 36.403 C 10.510 36.723,10.523 36.727,10.684 36.452 C 10.870 36.132,10.822 35.733,10.622 35.934 M9.367 39.117 C 9.120 39.920,9.239 40.040,9.500 39.250 C 9.610 38.917,9.667 38.612,9.628 38.572 C 9.588 38.533,9.471 38.778,9.367 39.117 M36.301 39.792 C 36.008 40.134,35.787 40.500,35.875 40.500 C 35.909 40.500,36.104 40.275,36.307 40.000 C 36.709 39.457,36.705 39.322,36.301 39.792 M16.864 40.583 C 16.759 40.812,16.742 41.000,16.826 41.000 C 16.990 41.000,17.243 40.354,17.126 40.237 C 17.086 40.197,16.969 40.353,16.864 40.583 M8.126 42.917 C 8.082 43.146,8.111 43.333,8.190 43.333 C 8.269 43.333,8.333 43.146,8.333 42.917 C 8.333 42.688,8.305 42.500,8.269 42.500 C 8.234 42.500,8.170 42.688,8.126 42.917 M15.500 44.320 C 15.500 44.496,15.451 44.777,15.390 44.945 C 15.330 45.113,15.332 45.204,15.395 45.148 C 15.601 44.964,15.819 44.000,15.655 44.000 C 15.570 44.000,15.500 44.144,15.500 44.320 M8.047 50.005 C 8.138 50.466,8.240 50.815,8.274 50.782 C 8.380 50.675,8.126 49.167,8.001 49.167 C 7.935 49.167,7.956 49.544,8.047 50.005 M15.712 50.333 C 15.712 50.746,15.745 50.915,15.784 50.708 C 15.824 50.502,15.824 50.165,15.784 49.958 C 15.745 49.752,15.712 49.921,15.712 50.333 M30.887 51.542 C 30.702 51.748,30.490 52.029,30.417 52.167 C 30.276 52.432,30.315 52.396,30.990 51.625 C 31.211 51.373,31.354 51.167,31.308 51.167 C 31.262 51.167,31.073 51.335,30.887 51.542 M15.443 51.701 C 15.307 52.219,15.411 52.245,15.636 51.751 C 15.741 51.521,15.762 51.333,15.683 51.333 C 15.604 51.333,15.496 51.499,15.443 51.701 M9.167 52.721 C 9.167 52.882,9.848 53.541,9.930 53.459 C 9.968 53.421,9.811 53.214,9.583 52.999 C 9.354 52.784,9.167 52.659,9.167 52.721 M29.417 53.088 C 29.142 53.314,28.997 53.499,29.096 53.499 C 29.195 53.500,29.451 53.313,29.667 53.083 C 30.160 52.558,30.062 52.560,29.417 53.088 M13.500 53.667 C 13.298 53.797,13.322 53.829,13.625 53.831 C 13.831 53.832,14.000 53.758,14.000 53.667 C 14.000 53.458,13.823 53.458,13.500 53.667 M22.042 55.289 C 20.995 55.383,21.180 55.593,22.250 55.526 C 22.755 55.495,23.125 55.401,23.074 55.318 C 23.022 55.235,22.929 55.180,22.865 55.196 C 22.802 55.212,22.431 55.254,22.042 55.289 M36.801 56.292 C 36.508 56.634,36.287 57.000,36.375 57.000 C 36.409 57.000,36.604 56.775,36.807 56.500 C 37.209 55.957,37.205 55.822,36.801 56.292 M17.250 56.667 C 17.128 56.864,17.291 56.864,17.750 56.667 C 18.071 56.529,18.070 56.523,17.718 56.512 C 17.517 56.505,17.307 56.575,17.250 56.667 M84.214 57.583 C 84.216 58.042,84.248 58.209,84.286 57.956 C 84.325 57.703,84.324 57.328,84.284 57.123 C 84.244 56.918,84.213 57.125,84.214 57.583 M116.726 59.083 C 116.725 59.908,116.754 60.267,116.788 59.880 C 116.823 59.493,116.824 58.818,116.789 58.380 C 116.755 57.942,116.726 58.258,116.726 59.083 M91.889 59.167 C 91.889 59.854,91.919 60.135,91.955 59.792 C 91.991 59.448,91.991 58.885,91.955 58.542 C 91.919 58.198,91.889 58.479,91.889 59.167 M12.577 60.042 L 11.750 60.917 12.663 60.083 C 13.165 59.625,13.609 59.231,13.649 59.208 C 13.689 59.185,13.651 59.167,13.563 59.167 C 13.476 59.167,13.032 59.560,12.577 60.042 M84.214 60.750 C 84.216 61.208,84.248 61.376,84.286 61.123 C 84.325 60.869,84.324 60.494,84.284 60.289 C 84.244 60.084,84.213 60.292,84.214 60.750 M23.750 62.833 L 23.083 62.953 23.792 62.976 C 24.181 62.989,24.500 62.925,24.500 62.833 C 24.500 62.742,24.481 62.677,24.458 62.690 C 24.435 62.703,24.117 62.768,23.750 62.833 M9.360 64.590 C 9.081 65.203,9.134 65.334,9.436 64.777 C 9.577 64.517,9.662 64.273,9.623 64.235 C 9.585 64.196,9.467 64.357,9.360 64.590 M35.460 64.451 C 35.668 64.491,35.968 64.490,36.127 64.448 C 36.286 64.406,36.117 64.374,35.750 64.375 C 35.383 64.377,35.253 64.411,35.460 64.451 M17.910 65.375 L 17.083 66.250 17.958 65.423 C 18.440 64.968,18.833 64.574,18.833 64.548 C 18.833 64.424,18.679 64.562,17.910 65.375 M8.090 68.264 C 8.026 68.692,7.929 69.158,7.875 69.299 C 7.814 69.456,7.846 69.512,7.956 69.444 C 8.142 69.329,8.428 67.706,8.287 67.565 C 8.243 67.521,8.154 67.835,8.090 68.264 M7.981 74.241 C 7.874 74.348,8.104 75.826,8.250 75.972 C 8.362 76.084,8.339 75.557,8.199 74.777 C 8.135 74.426,8.037 74.184,7.981 74.241 M46.083 78.333 C 46.441 78.700,46.765 79.000,46.803 79.000 C 46.944 79.000,45.744 77.694,45.591 77.681 C 45.504 77.673,45.725 77.967,46.083 78.333 M9.382 79.327 C 9.484 79.598,9.594 79.795,9.626 79.763 C 9.730 79.659,9.467 78.833,9.330 78.833 C 9.256 78.833,9.279 79.055,9.382 79.327 M10.572 82.083 C 10.637 82.358,10.762 82.657,10.850 82.746 C 10.937 82.836,10.921 82.648,10.813 82.330 C 10.561 81.583,10.419 81.438,10.572 82.083 M43.537 86.089 C 43.786 86.351,44.020 86.532,44.056 86.491 C 44.093 86.450,43.889 86.236,43.603 86.014 L 43.083 85.612 43.537 86.089 M23.175 88.456 C 23.386 88.753,23.599 88.957,23.646 88.910 C 23.693 88.862,23.520 88.619,23.261 88.370 L 22.790 87.917 23.175 88.456 M14.507 89.296 C 14.723 89.688,15.109 90.250,15.364 90.546 C 15.648 90.874,15.542 90.639,15.093 89.942 C 14.220 88.590,13.960 88.302,14.507 89.296 M24.249 89.834 C 25.039 90.757,25.050 90.768,24.869 90.417 C 24.775 90.233,24.484 89.896,24.224 89.667 L 23.750 89.251 24.249 89.834 M25.841 91.626 C 26.233 92.108,26.584 92.471,26.621 92.434 C 26.658 92.397,26.337 92.003,25.908 91.558 L 25.127 90.750 25.841 91.626 M27.167 93.068 C 27.167 93.105,27.560 93.453,28.042 93.842 L 28.917 94.548 28.105 93.774 C 27.335 93.039,27.167 92.912,27.167 93.068 M17.834 93.917 C 18.063 94.192,18.269 94.448,18.292 94.486 C 18.315 94.524,18.370 94.519,18.415 94.474 C 18.460 94.429,18.254 94.173,17.957 93.905 L 17.418 93.417 17.834 93.917 M93.906 94.042 L 93.417 94.583 93.958 94.094 C 94.256 93.825,94.500 93.581,94.500 93.552 C 94.500 93.423,94.362 93.537,93.906 94.042 M18.830 95.162 C 19.024 95.434,19.267 95.709,19.371 95.773 C 19.475 95.838,19.350 95.615,19.094 95.279 C 18.537 94.548,18.327 94.455,18.830 95.162 M30.583 96.107 C 31.432 96.860,31.745 97.080,31.417 96.693 C 31.236 96.478,30.936 96.225,30.752 96.131 C 30.568 96.036,30.492 96.026,30.583 96.107 M19.985 96.472 C 20.075 96.640,20.279 96.884,20.439 97.014 C 20.619 97.160,20.579 97.044,20.334 96.708 C 19.896 96.110,19.732 95.999,19.985 96.472 M23.333 99.822 C 24.441 100.875,24.868 101.216,24.417 100.687 C 24.233 100.472,23.708 99.993,23.250 99.623 L 22.417 98.950 23.333 99.822 M25.333 101.583 C 25.644 101.904,25.936 102.167,25.982 102.167 C 26.028 102.167,25.811 101.904,25.500 101.583 C 25.189 101.263,24.897 101.000,24.851 101.000 C 24.805 101.000,25.022 101.263,25.333 101.583 M60.542 107.121 C 60.885 107.157,61.448 107.157,61.792 107.121 C 62.135 107.085,61.854 107.056,61.167 107.056 C 60.479 107.056,60.198 107.085,60.542 107.121 M36.500 108.952 C 36.637 109.003,36.900 109.114,37.083 109.198 C 37.411 109.349,37.411 109.348,37.093 109.093 C 36.915 108.950,36.653 108.839,36.510 108.846 C 36.285 108.858,36.284 108.872,36.500 108.952 M58.627 114.618 C 58.834 114.658,59.134 114.656,59.294 114.615 C 59.453 114.573,59.283 114.540,58.917 114.542 C 58.550 114.544,58.420 114.578,58.627 114.618 M63.127 114.618 C 63.334 114.658,63.634 114.656,63.794 114.615 C 63.953 114.573,63.783 114.540,63.417 114.542 C 63.050 114.544,62.920 114.578,63.127 114.618 " stroke="none" fill="#84d2e6" fill-rule="evenodd"></path><path id="path4" d="" stroke="none" fill="#dcd0100" fill-rule="evenodd"></path><path id="path5" d="" stroke="none" fill="#dcd0100" fill-rule="evenodd"></path><path id="path6" d="" stroke="none" fill="#dcd0100" fill-rule="evenodd"></path><path id="path7" d="" stroke="none" fill="#dcd0100" fill-rule="evenodd"></path></g></svg>