<svg width="24" height="25" viewBox="0 0 24 25" fill="none" xmlns="http://www.w3.org/2000/svg">
    <path d="M21.001 9.25C20.587 9.25 20.251 8.914 20.251 8.5V5C20.251 4.411 20.09 4.25 19.501 4.25H16.001C15.587 4.25 15.251 3.914 15.251 3.5C15.251 3.086 15.587 2.75 16.001 2.75H19.501C20.91 2.75 21.751 3.591 21.751 5V8.5C21.751 8.914 21.415 9.25 21.001 9.25ZM3.00098 9.25C2.58698 9.25 2.25098 8.914 2.25098 8.5V5C2.25098 3.591 3.09198 2.75 4.50098 2.75H8.00098C8.41498 2.75 8.75098 3.086 8.75098 3.5C8.75098 3.914 8.41498 4.25 8.00098 4.25H4.50098C3.91198 4.25 3.75098 4.411 3.75098 5V8.5C3.75098 8.914 3.41498 9.25 3.00098 9.25ZM8.00098 22.25H4.50098C3.09198 22.25 2.25098 21.409 2.25098 20V16.5C2.25098 16.086 2.58698 15.75 3.00098 15.75C3.41498 15.75 3.75098 16.086 3.75098 16.5V20C3.75098 20.589 3.91198 20.75 4.50098 20.75H8.00098C8.41498 20.75 8.75098 21.086 8.75098 21.5C8.75098 21.914 8.41498 22.25 8.00098 22.25ZM19.501 22.25H16.001C15.587 22.25 15.251 21.914 15.251 21.5C15.251 21.086 15.587 20.75 16.001 20.75H19.501C20.09 20.75 20.251 20.589 20.251 20V16.5C20.251 16.086 20.587 15.75 21.001 15.75C21.415 15.75 21.751 16.086 21.751 16.5V20C21.751 21.409 20.91 22.25 19.501 22.25Z" fill="#25314C"/>
    <path fill-rule="evenodd" clip-rule="evenodd" d="M12.8692 6.38813C13.2598 5.9976 13.8929 5.9976 14.2835 6.38813C16.7105 8.81515 17.3146 11.2751 16.9236 13.4065C16.5457 15.4664 15.2677 17.0619 14.204 17.9196C13.7741 18.2663 13.1446 18.1988 12.7979 17.7688C12.4512 17.3389 12.5187 16.7093 12.9487 16.3627C13.7388 15.7256 14.6854 14.5227 14.9564 13.0456C15.2142 11.6401 14.8914 9.82451 12.8692 7.80234C12.4787 7.41182 12.4787 6.77865 12.8692 6.38813Z" fill="#25314C"/>
    <path fill-rule="evenodd" clip-rule="evenodd" d="M9.93955 8.00586C10.3301 7.61534 10.9632 7.61534 11.3538 8.00586C13.0643 9.71642 13.5192 11.4879 13.2326 13.0497C12.9592 14.5401 12.0395 15.6849 11.2744 16.3019C10.8444 16.6486 10.2149 16.5811 9.8682 16.1511C9.52153 15.7212 9.58903 15.0917 10.019 14.745C10.5106 14.3486 11.099 13.5963 11.2655 12.6889C11.4188 11.8529 11.2453 10.7258 9.93955 9.42008C9.54903 9.02955 9.54903 8.39639 9.93955 8.00586Z" fill="#25314C"/>
    <path fill-rule="evenodd" clip-rule="evenodd" d="M6.94199 9.63282C7.33252 9.24229 7.96568 9.24229 8.35621 9.63282C9.3462 10.6228 9.65091 11.7018 9.46948 12.6909C9.30116 13.6084 8.74172 14.3 8.2768 14.6749C7.84687 15.0216 7.21731 14.9541 6.87064 14.5242C6.52397 14.0942 6.59147 13.4647 7.02141 13.118C7.21279 12.9637 7.44092 12.6646 7.50231 12.33C7.55059 12.0668 7.52714 11.6322 6.94199 11.047C6.55147 10.6565 6.55147 10.0233 6.94199 9.63282Z" fill="#25314C"/>
</svg>
